<svg width="135" height="54" viewBox="0 0 135 54" fill="none" xmlns="http://www.w3.org/2000/svg">
<path fill-rule="evenodd" clip-rule="evenodd" d="M135 41C135 41.5523 134.552 42 134 42L95 42C94.4477 42 94 41.5523 94 41V37C94 36.4477 94.4477 36 95 36L134 36C134.552 36 135 36.4477 135 37V41Z" fill="#4C84FF"/>
<path d="M12.0781 42.0531C11.5258 42.0531 11.0781 41.6054 11.0781 41.0531V10.6334C11.0781 10.0811 10.6304 9.63338 10.0781 9.63338H1C0.447717 9.63338 0 9.18566 0 8.63338V5.04002C0 4.48774 0.447715 4.04002 1 4.04002H28.1615C28.7138 4.04002 29.1615 4.48773 29.1615 5.04002V8.63338C29.1615 9.18566 28.7138 9.63338 28.1615 9.63338H19.0291C18.4768 9.63338 18.0291 10.0811 18.0291 10.6334V41.0531C18.0291 41.6054 17.5814 42.0531 17.0291 42.0531H12.0781Z" fill="#ffffff"/>
<path d="M29.7809 42.0531C29.2286 42.0531 28.7809 41.6054 28.7809 41.0531V16.1181C28.7809 15.5658 29.2286 15.1181 29.7809 15.1181H34.0924C34.5952 15.1181 35.0198 15.4915 35.0842 15.9902L35.4304 18.6738C35.492 19.1511 36.155 19.2906 36.4421 18.9044C37.3002 17.7497 38.3487 16.7953 39.5875 16.0413C41.0358 15.1477 42.6938 14.6344 44.5617 14.5014C45.1126 14.4621 45.561 14.9142 45.561 15.4665V20.7976C45.561 21.3499 45.1133 21.7976 44.561 21.7976H43.606C42.0855 21.7976 40.7279 22.0329 39.5332 22.5035C38.3385 22.9742 37.3972 23.7887 36.7094 24.9472C36.0577 26.1057 35.7319 27.7168 35.7319 29.7803V41.0531C35.7319 41.6054 35.2842 42.0531 34.7319 42.0531H29.7809Z" fill="#ffffff"/>
<path d="M51.3436 10.9367C50.0765 10.9367 49.0266 10.5566 48.1939 9.79629C47.3975 9.03603 46.9992 8.07665 46.9992 6.91816C46.9992 5.75966 47.3975 4.81838 48.1939 4.09432C49.0266 3.33406 50.0765 2.95393 51.3436 2.95393C52.6107 2.95393 53.6425 3.33406 54.4389 4.09432C55.2716 4.81838 55.6879 5.75966 55.6879 6.91816C55.6879 8.07665 55.2716 9.03603 54.4389 9.79629C53.6425 10.5566 52.6107 10.9367 51.3436 10.9367ZM48.8681 42.0531C48.3158 42.0531 47.8681 41.6054 47.8681 41.0531V16.1181C47.8681 15.5658 48.3158 15.1181 48.8681 15.1181H53.8191C54.3713 15.1181 54.8191 15.5658 54.8191 16.1181V41.0531C54.8191 41.6054 54.3713 42.0531 53.8191 42.0531H48.8681Z" fill="#ffffff"/>
<path d="M60.359 54.0001C59.8067 54.0001 59.359 53.5524 59.359 53.0001V16.1181C59.359 15.5658 59.8067 15.1181 60.359 15.1181H64.7276C65.2053 15.1181 65.6163 15.456 65.7087 15.9247L66.0885 17.8504C66.1729 18.2785 66.7388 18.4091 67.0306 18.0847C67.7805 17.251 68.6807 16.4975 69.7311 15.8241C71.1793 14.919 73.0437 14.4665 75.3245 14.4665C77.8587 14.4665 80.1214 15.0819 82.1126 16.3128C84.1037 17.5437 85.6786 19.2272 86.8371 21.3631C87.9955 23.4991 88.5748 25.9247 88.5748 28.6399C88.5748 31.3552 87.9955 33.7808 86.8371 35.9167C85.6786 38.0165 84.1037 39.6818 82.1126 40.9127C80.1214 42.1074 77.8587 42.7048 75.3245 42.7048C73.2971 42.7048 71.5232 42.3247 70.0027 41.5644C68.9802 41.0532 68.0887 40.4028 67.3281 39.6132C66.9871 39.2592 66.31 39.4851 66.31 39.9767V53.0001C66.31 53.5524 65.8623 54.0001 65.31 54.0001H60.359ZM73.8583 36.6227C76.0667 36.6227 77.8949 35.8805 79.343 34.3962C80.7912 32.9119 81.5152 30.9931 81.5152 28.6399C81.5152 26.2867 80.7912 24.3499 79.343 22.8294C77.8949 21.3088 76.0667 20.5486 73.8583 20.5486C71.6137 20.5486 69.7673 21.3088 68.3192 22.8294C66.9073 24.3137 66.2014 26.2324 66.2014 28.5856C66.2014 30.9388 66.9073 32.8757 68.3192 34.3962C69.7673 35.8805 71.6137 36.6227 73.8583 36.6227Z" fill="#ffffff"/>
<path d="M97.031 5.71067C96.1525 5.71067 95.4203 5.4471 94.8346 4.91996C94.2782 4.36354 94 3.67533 94 2.85533C94 2.03534 94.2782 1.36177 94.8346 0.834636C95.4203 0.278212 96.1525 0 97.031 0C97.9096 0 98.6271 0.278212 99.1835 0.834636C99.7692 1.36177 100.062 2.03534 100.062 2.85533C100.062 3.67533 99.7692 4.36354 99.1835 4.91996C98.6271 5.4471 97.9096 5.71067 97.031 5.71067ZM95.7029 31.6283C95.1506 31.6283 94.7029 31.1806 94.7029 30.6283V10.8399C94.7029 10.2876 95.1506 9.83992 95.7029 9.83992H98.3592C98.9115 9.83992 99.3592 10.2876 99.3592 10.8399V30.6283C99.3592 31.1806 98.9115 31.6283 98.3592 31.6283H95.7029Z" fill="#ffffff"/>
<path d="M111.568 32.1555C108.815 32.1555 106.546 31.4819 104.759 30.1348C103.279 29.0187 102.322 27.6011 101.887 25.8819C101.74 25.3013 102.211 24.7755 102.81 24.7755H105.593C106.057 24.7755 106.449 25.1007 106.633 25.5264C106.931 26.2122 107.404 26.8258 108.054 27.3673C108.933 28.0701 110.089 28.4216 111.524 28.4216C112.93 28.4216 113.955 28.1287 114.599 27.543C115.244 26.9573 115.566 26.2837 115.566 25.5223C115.566 24.4095 115.112 23.6627 114.204 23.282C113.325 22.872 112.095 22.5059 110.514 22.1838C109.284 21.9202 108.054 21.5688 106.824 21.1295C105.623 20.6902 104.613 20.0752 103.793 19.2845C103.002 18.4645 102.607 17.3663 102.607 15.9899C102.607 14.0863 103.339 12.5049 104.803 11.2456C106.268 9.95707 108.318 9.31279 110.953 9.31279C113.384 9.31279 115.346 9.89849 116.84 11.0699C118.087 12.0296 118.912 13.3137 119.315 14.9221C119.46 15.505 118.989 16.0338 118.388 16.0338H115.894C115.402 16.0338 115 15.666 114.813 15.2101C114.587 14.6562 114.222 14.1987 113.721 13.8374C113.018 13.3103 112.066 13.0467 110.865 13.0467C109.694 13.0467 108.786 13.2956 108.142 13.7935C107.498 14.262 107.175 14.877 107.175 15.6385C107.175 16.3999 107.615 17.0002 108.493 17.4395C109.401 17.8788 110.587 18.2741 112.051 18.6256C113.516 18.9477 114.863 19.3284 116.093 19.7677C117.352 20.1777 118.362 20.7927 119.124 21.6127C119.885 22.4327 120.266 23.6334 120.266 25.2148C120.295 27.2062 119.519 28.8608 117.938 30.1787C116.386 31.4965 114.262 32.1555 111.568 32.1555Z" fill="#ffffff"/>
<path d="M131.036 31.6283C128.898 31.6283 127.199 31.1158 125.94 30.0908C124.681 29.0366 124.051 27.1769 124.051 24.512V14.7495C124.051 14.1973 123.603 13.7495 123.051 13.7495H121.317C120.765 13.7495 120.317 13.3018 120.317 12.7495V10.8399C120.317 10.2876 120.765 9.83992 121.317 9.83992H123.149C123.661 9.83992 124.091 9.45239 124.144 8.94255L124.53 5.20233C124.582 4.69249 125.012 4.30497 125.524 4.30497H127.707C128.26 4.30497 128.707 4.75268 128.707 5.30497V8.83992C128.707 9.39221 129.155 9.83992 129.707 9.83992H133.857C134.41 9.83992 134.857 10.2876 134.857 10.8399V12.7495C134.857 13.3018 134.41 13.7495 133.857 13.7495H129.707C129.155 13.7495 128.707 14.1973 128.707 14.7495V24.512C128.707 25.7127 128.956 26.5473 129.454 27.0159C129.981 27.4551 130.875 27.6748 132.134 27.6748H133.638C134.19 27.6748 134.638 28.1225 134.638 28.6748V30.6283C134.638 31.1806 134.19 31.6283 133.638 31.6283H131.036Z" fill="#ffffff"/>
</svg>
