<svg width="20" height="14" viewBox="0 0 20 14" fill="none" xmlns="http://www.w3.org/2000/svg">
<path d="M9.5 4V1.5M9.5 4C10.9923 4 12.2751 4.29274 13.3585 4.72941M9.5 4C8.09638 4 6.87809 4.25897 5.83675 4.6531M16.5 6.74509C17.5162 7.6977 18 8.53191 18 8.53191C18 8.53191 15.3717 13 9.5 13C3.62829 13 1 8.53191 1 8.53191C1 8.53191 1.56957 7.54982 2.77075 6.5M16.5 6.74509L18.338 4.72941M16.5 6.74509C15.7496 6.04168 14.709 5.27372 13.3585 4.72941M13.3585 4.72941L14.5 2.5M2.77075 6.5L1.20034 4.72941M2.77075 6.5C3.53307 5.83374 4.54978 5.1402 5.83675 4.6531M5.83675 4.6531L4.5 2.5" stroke="#52545C" stroke-width="1.5" stroke-linecap="round" stroke-linejoin="round"/>
<circle cx="9.5" cy="8.5" r="1.75" fill="#52545C" stroke="#52545C" stroke-width="1.5"/>
</svg>
