<svg width="21" height="10" viewBox="0 0 21 10" fill="none" xmlns="http://www.w3.org/2000/svg">
<path d="M2 1.53191C2 1.53191 2.45046 2.29769 3.39502 3.1952M19 1.53191C19 1.53191 18.5495 2.29769 17.605 3.1952M10.5 6V8.5M10.5 6C12.0578 6 13.3873 5.6855 14.5 5.22339M10.5 6C8.9422 6 7.6127 5.6855 6.5 5.22339M17.605 3.1952L19.5 5M17.605 3.1952C16.8733 3.89046 15.845 4.66478 14.5 5.22339M14.5 5.22339L15.5 7.5M3.39502 3.1952L1.5 5M3.39502 3.1952C4.12674 3.89046 5.15497 4.66478 6.5 5.22339M6.5 5.22339L5.5 7.5" stroke="#52545C" stroke-width="1.5" stroke-linecap="round"/>
</svg>
