<svg width="15" height="16" viewBox="0 0 15 16" fill="none" xmlns="http://www.w3.org/2000/svg">
<path fill-rule="evenodd" clip-rule="evenodd" d="M10.6076 12.3829C9.51861 13.1282 8.20123 13.5641 6.78204 13.5641C3.03642 13.5641 0 10.5277 0 6.78204C0 3.03642 3.03642 0 6.78204 0C10.5277 0 13.5641 3.03642 13.5641 6.78204C13.5641 8.38659 13.0069 9.861 12.0754 11.0223L14.7071 13.654C15.0976 14.0446 15.0976 14.6777 14.7071 15.0683C14.3166 15.4588 13.6834 15.4588 13.2929 15.0683L10.6076 12.3829ZM11.5641 6.78204C11.5641 9.42309 9.42309 11.5641 6.78204 11.5641C4.14099 11.5641 2 9.42309 2 6.78204C2 4.14099 4.14099 2 6.78204 2C9.42309 2 11.5641 4.14099 11.5641 6.78204Z" fill="#B4B6BC"/>
</svg>
