<svg width="530" height="530" viewBox="0 0 530 530" fill="none" xmlns="http://www.w3.org/2000/svg">
<path fill-rule="evenodd" clip-rule="evenodd" d="M530 57.2081H514.229C506.08 57.2081 499.475 63.815 499.475 71.9651V100.145C499.475 108.295 506.08 114.902 514.229 114.902H530V57.2081ZM530 443.567L14.7539 443.567C6.60554 443.567 0 450.174 0 458.324L4.97499e-06 515.243C5.68734e-06 523.393 6.60554 530 14.7539 530L530 530V443.567ZM0.21612 363.983V0H68.916V363.983C68.916 372.133 62.3104 378.74 54.1621 378.74H14.97C6.82167 378.74 0.21612 372.133 0.21612 363.983ZM136.319 378.74C128.17 378.74 121.565 372.133 121.565 363.983V71.9651C121.565 63.815 128.17 57.2081 136.319 57.2081H175.511C183.659 57.2081 190.265 63.815 190.265 71.9651V363.983C190.265 372.133 183.659 378.74 175.511 378.74H136.319ZM269.937 356.7C296.294 376.579 329.779 386.519 370.394 386.519C410.145 386.519 441.471 376.795 464.371 357.348C487.703 337.9 499.153 313.483 498.72 284.096C498.72 260.759 493.104 243.04 481.87 230.939C470.636 218.838 455.729 209.763 437.15 203.713C419.003 197.23 399.127 191.612 377.524 186.858C355.92 181.672 338.421 175.838 325.027 169.355C312.064 162.873 305.583 154.013 305.583 142.777C305.583 131.541 310.336 122.465 319.842 115.551C329.347 108.204 342.742 104.53 360.025 104.53C377.74 104.53 391.782 108.42 402.152 116.199C409.555 121.53 414.928 128.282 418.272 136.455C421.026 143.184 426.954 148.611 434.223 148.611H471.018C479.882 148.611 486.836 140.808 484.684 132.206C478.748 108.471 466.575 89.5218 448.168 75.3591C426.132 58.0724 397.183 49.4291 361.321 49.4291C322.434 49.4291 292.189 58.9367 270.585 77.9521C248.981 96.5353 238.179 119.872 238.179 147.963C238.179 168.275 244.013 184.481 255.679 196.582C267.777 208.25 282.683 217.326 300.398 223.808C318.545 230.291 336.693 235.477 354.84 239.366C378.172 244.12 396.319 249.522 409.281 255.573C422.675 261.191 429.373 272.211 429.373 288.633C429.373 299.87 424.62 309.81 415.114 318.453C405.608 327.096 390.486 331.418 369.746 331.418C348.575 331.418 331.508 326.232 318.545 315.86C308.958 307.869 301.971 298.814 297.584 288.695C294.86 282.412 289.078 277.613 282.232 277.613H241.173C232.337 277.613 225.395 285.372 227.561 293.94C233.975 319.31 248.101 340.229 269.937 356.7Z" fill="white"/>
</svg>
