<svg width="408" height="481" viewBox="0 0 408 481" fill="none" xmlns="http://www.w3.org/2000/svg">
<path d="M408 8.2082H392.229C384.08 8.2082 377.475 14.8151 377.475 22.9652V51.1451C377.475 59.2951 384.08 65.9021 392.229 65.9021H408V8.2082ZM408 394.567H14.3187C6.17033 394.567 -0.435205 401.174 -0.435205 409.324L-0.4352 466.243C-0.4352 474.393 6.17033 481 14.3187 481H408V394.567ZM14.3189 329.74C6.16993 329.74 -0.435059 323.133 -0.435059 314.983V22.9652C-0.435059 14.8151 6.16993 8.2082 14.3189 8.2082H53.5109C61.6589 8.2082 68.265 14.8151 68.265 22.9652V314.983C68.265 323.133 61.6589 329.74 53.5109 329.74H14.3189ZM147.937 307.7C174.294 327.579 207.779 337.519 248.394 337.519C288.145 337.519 319.471 327.795 342.371 308.348C365.703 288.9 377.153 264.483 376.72 235.096C376.72 211.759 371.104 194.04 359.87 181.939C348.636 169.838 333.729 160.763 315.15 154.713C297.003 148.23 277.127 142.612 255.524 137.858C233.92 132.672 216.421 126.838 203.027 120.355C190.064 113.873 183.583 105.013 183.583 93.7771C183.583 82.5411 188.336 73.4651 197.842 66.5511C207.347 59.2041 220.742 55.5301 238.025 55.5301C255.74 55.5301 269.782 59.4201 280.152 67.1991C287.555 72.5301 292.928 79.2821 296.272 87.4551C299.026 94.1841 304.954 99.6111 312.223 99.6111H349.018C357.882 99.6111 364.836 91.8081 362.684 83.2061C356.748 59.4711 344.575 40.5219 326.168 26.3592C304.132 9.0725 275.183 0.429199 239.321 0.429199C200.434 0.429199 170.189 9.9368 148.585 28.9522C126.981 47.5354 116.179 70.8721 116.179 98.9631C116.179 119.275 122.013 135.481 133.679 147.582C145.777 159.25 160.683 168.326 178.398 174.808C196.545 181.291 214.693 186.477 232.84 190.366C256.172 195.12 274.319 200.522 287.281 206.573C300.675 212.191 307.373 223.211 307.373 239.633C307.373 250.87 302.62 260.81 293.114 269.453C283.608 278.096 268.486 282.418 247.746 282.418C226.575 282.418 209.508 277.232 196.545 266.86C186.958 258.869 179.971 249.814 175.584 239.695C172.86 233.412 167.078 228.613 160.232 228.613H119.173C110.337 228.613 103.395 236.372 105.561 244.94C111.975 270.31 126.101 291.229 147.937 307.7Z" fill="white"/>
</svg>
