<svg width="916" height="675" viewBox="0 0 916 675" fill="none" xmlns="http://www.w3.org/2000/svg">
<path d="M189.483 125.444C189.483 127.723 187.636 129.57 185.358 129.57C183.079 129.57 181.232 127.723 181.232 125.444C181.232 123.166 183.079 121.319 185.358 121.319C187.636 121.319 189.483 123.166 189.483 125.444Z" fill="#467BF0"/>
<path d="M249.991 125.444C249.991 127.723 248.144 129.57 245.866 129.57C243.587 129.57 241.74 127.723 241.74 125.444C241.74 123.166 243.587 121.319 245.866 121.319C248.144 121.319 249.991 123.166 249.991 125.444Z" fill="#467BF0"/>
<path d="M310.5 125.444C310.5 127.723 308.653 129.57 306.374 129.57C304.096 129.57 302.249 127.723 302.249 125.444C302.249 123.166 304.096 121.319 306.374 121.319C308.653 121.319 310.5 123.166 310.5 125.444Z" fill="#467BF0"/>
<path d="M371.008 125.444C371.008 127.723 369.161 129.57 366.882 129.57C364.604 129.57 362.757 127.723 362.757 125.444C362.757 123.166 364.604 121.319 366.882 121.319C369.161 121.319 371.008 123.166 371.008 125.444Z" fill="#467BF0"/>
<path d="M431.516 125.444C431.516 127.723 429.669 129.57 427.391 129.57C425.112 129.57 423.265 127.723 423.265 125.444C423.265 123.166 425.112 121.319 427.391 121.319C429.669 121.319 431.516 123.166 431.516 125.444Z" fill="#467BF0"/>
<path d="M189.483 185.953C189.483 188.231 187.636 190.078 185.358 190.078C183.079 190.078 181.232 188.231 181.232 185.953C181.232 183.674 183.079 181.827 185.358 181.827C187.636 181.827 189.483 183.674 189.483 185.953Z" fill="#467BF0"/>
<path d="M249.991 185.953C249.991 188.231 248.144 190.078 245.866 190.078C243.587 190.078 241.74 188.231 241.74 185.953C241.74 183.674 243.587 181.827 245.866 181.827C248.144 181.827 249.991 183.674 249.991 185.953Z" fill="#467BF0"/>
<path d="M310.5 185.953C310.5 188.231 308.653 190.078 306.374 190.078C304.096 190.078 302.249 188.231 302.249 185.953C302.249 183.674 304.096 181.827 306.374 181.827C308.653 181.827 310.5 183.674 310.5 185.953Z" fill="#467BF0"/>
<path d="M371.008 185.953C371.008 188.231 369.161 190.078 366.882 190.078C364.604 190.078 362.757 188.231 362.757 185.953C362.757 183.674 364.604 181.827 366.882 181.827C369.161 181.827 371.008 183.674 371.008 185.953Z" fill="#467BF0"/>
<path d="M431.516 185.953C431.516 188.231 429.669 190.078 427.391 190.078C425.112 190.078 423.265 188.231 423.265 185.953C423.265 183.674 425.112 181.827 427.391 181.827C429.669 181.827 431.516 183.674 431.516 185.953Z" fill="#467BF0"/>
<path d="M189.483 246.461C189.483 248.739 187.636 250.586 185.358 250.586C183.079 250.586 181.232 248.739 181.232 246.461C181.232 244.182 183.079 242.335 185.358 242.335C187.636 242.335 189.483 244.182 189.483 246.461Z" fill="#467BF0"/>
<path d="M249.991 246.461C249.991 248.739 248.144 250.586 245.866 250.586C243.587 250.586 241.74 248.739 241.74 246.461C241.74 244.182 243.587 242.335 245.866 242.335C248.144 242.335 249.991 244.182 249.991 246.461Z" fill="#467BF0"/>
<path d="M310.5 246.461C310.5 248.739 308.653 250.586 306.374 250.586C304.096 250.586 302.249 248.739 302.249 246.461C302.249 244.182 304.096 242.335 306.374 242.335C308.653 242.335 310.5 244.182 310.5 246.461Z" fill="#467BF0"/>
<path d="M371.008 246.461C371.008 248.739 369.161 250.586 366.882 250.586C364.604 250.586 362.757 248.739 362.757 246.461C362.757 244.182 364.604 242.335 366.882 242.335C369.161 242.335 371.008 244.182 371.008 246.461Z" fill="#467BF0"/>
<path d="M431.516 246.461C431.516 248.739 429.669 250.586 427.391 250.586C425.112 250.586 423.265 248.739 423.265 246.461C423.265 244.182 425.112 242.335 427.391 242.335C429.669 242.335 431.516 244.182 431.516 246.461Z" fill="#467BF0"/>
<path d="M189.483 306.969C189.483 309.248 187.636 311.095 185.358 311.095C183.079 311.095 181.232 309.248 181.232 306.969C181.232 304.691 183.079 302.844 185.358 302.844C187.636 302.844 189.483 304.691 189.483 306.969Z" fill="#467BF0"/>
<path d="M249.991 306.969C249.991 309.248 248.144 311.095 245.866 311.095C243.587 311.095 241.74 309.248 241.74 306.969C241.74 304.691 243.587 302.844 245.866 302.844C248.144 302.844 249.991 304.691 249.991 306.969Z" fill="#467BF0"/>
<path d="M310.5 306.969C310.5 309.248 308.653 311.095 306.374 311.095C304.096 311.095 302.249 309.248 302.249 306.969C302.249 304.691 304.096 302.844 306.374 302.844C308.653 302.844 310.5 304.691 310.5 306.969Z" fill="#467BF0"/>
<path d="M371.008 306.969C371.008 309.248 369.161 311.095 366.882 311.095C364.604 311.095 362.757 309.248 362.757 306.969C362.757 304.691 364.604 302.844 366.882 302.844C369.161 302.844 371.008 304.691 371.008 306.969Z" fill="#467BF0"/>
<path d="M431.516 306.969C431.516 309.248 429.669 311.095 427.391 311.095C425.112 311.095 423.265 309.248 423.265 306.969C423.265 304.691 425.112 302.844 427.391 302.844C429.669 302.844 431.516 304.691 431.516 306.969Z" fill="#467BF0"/>
<path d="M189.483 367.477C189.483 369.756 187.636 371.603 185.358 371.603C183.079 371.603 181.232 369.756 181.232 367.477C181.232 365.199 183.079 363.352 185.358 363.352C187.636 363.352 189.483 365.199 189.483 367.477Z" fill="#467BF0"/>
<path d="M249.991 367.477C249.991 369.756 248.144 371.603 245.866 371.603C243.587 371.603 241.74 369.756 241.74 367.477C241.74 365.199 243.587 363.352 245.866 363.352C248.144 363.352 249.991 365.199 249.991 367.477Z" fill="#467BF0"/>
<path d="M310.5 367.477C310.5 369.756 308.653 371.603 306.374 371.603C304.096 371.603 302.249 369.756 302.249 367.477C302.249 365.199 304.096 363.352 306.374 363.352C308.653 363.352 310.5 365.199 310.5 367.477Z" fill="#467BF0"/>
<path d="M371.008 367.477C371.008 369.756 369.161 371.603 366.882 371.603C364.604 371.603 362.757 369.756 362.757 367.477C362.757 365.199 364.604 363.352 366.882 363.352C369.161 363.352 371.008 365.199 371.008 367.477Z" fill="#467BF0"/>
<path d="M431.516 367.477C431.516 369.756 429.669 371.603 427.391 371.603C425.112 371.603 423.265 369.756 423.265 367.477C423.265 365.199 425.112 363.352 427.391 363.352C429.669 363.352 431.516 365.199 431.516 367.477Z" fill="#467BF0"/>
<path d="M189.483 427.985C189.483 430.264 187.636 432.111 185.358 432.111C183.079 432.111 181.232 430.264 181.232 427.985C181.232 425.707 183.079 423.86 185.358 423.86C187.636 423.86 189.483 425.707 189.483 427.985Z" fill="#467BF0"/>
<path d="M249.991 427.985C249.991 430.264 248.144 432.111 245.866 432.111C243.587 432.111 241.74 430.264 241.74 427.985C241.74 425.707 243.587 423.86 245.866 423.86C248.144 423.86 249.991 425.707 249.991 427.985Z" fill="#467BF0"/>
<path d="M310.5 427.985C310.5 430.264 308.653 432.111 306.374 432.111C304.096 432.111 302.249 430.264 302.249 427.985C302.249 425.707 304.096 423.86 306.374 423.86C308.653 423.86 310.5 425.707 310.5 427.985Z" fill="#467BF0"/>
<path d="M371.008 427.985C371.008 430.264 369.161 432.111 366.882 432.111C364.604 432.111 362.757 430.264 362.757 427.985C362.757 425.707 364.604 423.86 366.882 423.86C369.161 423.86 371.008 425.707 371.008 427.985Z" fill="#467BF0"/>
<path d="M431.516 427.985C431.516 430.264 429.669 432.111 427.391 432.111C425.112 432.111 423.265 430.264 423.265 427.985C423.265 425.707 425.112 423.86 427.391 423.86C429.669 423.86 431.516 425.707 431.516 427.985Z" fill="#467BF0"/>
<path d="M189.483 488.494C189.483 490.772 187.636 492.619 185.358 492.619C183.079 492.619 181.232 490.772 181.232 488.494C181.232 486.215 183.079 484.368 185.358 484.368C187.636 484.368 189.483 486.215 189.483 488.494Z" fill="#467BF0"/>
<path d="M249.991 488.494C249.991 490.772 248.144 492.619 245.866 492.619C243.587 492.619 241.74 490.772 241.74 488.494C241.74 486.215 243.587 484.368 245.866 484.368C248.144 484.368 249.991 486.215 249.991 488.494Z" fill="#467BF0"/>
<path d="M310.5 488.494C310.5 490.772 308.653 492.619 306.374 492.619C304.096 492.619 302.249 490.772 302.249 488.494C302.249 486.215 304.096 484.368 306.374 484.368C308.653 484.368 310.5 486.215 310.5 488.494Z" fill="#467BF0"/>
<path d="M371.008 488.494C371.008 490.772 369.161 492.619 366.882 492.619C364.604 492.619 362.757 490.772 362.757 488.494C362.757 486.215 364.604 484.368 366.882 484.368C369.161 484.368 371.008 486.215 371.008 488.494Z" fill="#467BF0"/>
<path d="M431.516 488.494C431.516 490.772 429.669 492.619 427.391 492.619C425.112 492.619 423.265 490.772 423.265 488.494C423.265 486.215 425.112 484.368 427.391 484.368C429.669 484.368 431.516 486.215 431.516 488.494Z" fill="#467BF0"/>
<path d="M189.483 549.002C189.483 551.28 187.636 553.128 185.358 553.128C183.079 553.128 181.232 551.28 181.232 549.002C181.232 546.723 183.079 544.876 185.358 544.876C187.636 544.876 189.483 546.723 189.483 549.002Z" fill="#467BF0"/>
<path d="M249.991 549.002C249.991 551.28 248.144 553.128 245.866 553.128C243.587 553.128 241.74 551.28 241.74 549.002C241.74 546.723 243.587 544.876 245.866 544.876C248.144 544.876 249.991 546.723 249.991 549.002Z" fill="#467BF0"/>
<path d="M310.5 549.002C310.5 551.28 308.653 553.128 306.374 553.128C304.096 553.128 302.249 551.28 302.249 549.002C302.249 546.723 304.096 544.876 306.374 544.876C308.653 544.876 310.5 546.723 310.5 549.002Z" fill="#467BF0"/>
<path d="M371.008 549.002C371.008 551.28 369.161 553.128 366.882 553.128C364.604 553.128 362.757 551.28 362.757 549.002C362.757 546.723 364.604 544.876 366.882 544.876C369.161 544.876 371.008 546.723 371.008 549.002Z" fill="#467BF0"/>
<path d="M431.516 549.002C431.516 551.28 429.669 553.128 427.391 553.128C425.112 553.128 423.265 551.28 423.265 549.002C423.265 546.723 425.112 544.876 427.391 544.876C429.669 544.876 431.516 546.723 431.516 549.002Z" fill="#467BF0"/>
<path d="M189.483 609.51C189.483 611.789 187.636 613.636 185.358 613.636C183.079 613.636 181.232 611.789 181.232 609.51C181.232 607.232 183.079 605.384 185.358 605.384C187.636 605.384 189.483 607.232 189.483 609.51Z" fill="#467BF0"/>
<path d="M249.991 609.51C249.991 611.789 248.144 613.636 245.866 613.636C243.587 613.636 241.74 611.789 241.74 609.51C241.74 607.232 243.587 605.384 245.866 605.384C248.144 605.384 249.991 607.232 249.991 609.51Z" fill="#467BF0"/>
<path d="M310.5 609.51C310.5 611.789 308.653 613.636 306.374 613.636C304.096 613.636 302.249 611.789 302.249 609.51C302.249 607.232 304.096 605.384 306.374 605.384C308.653 605.384 310.5 607.232 310.5 609.51Z" fill="#467BF0"/>
<path d="M371.008 609.51C371.008 611.789 369.161 613.636 366.882 613.636C364.604 613.636 362.757 611.789 362.757 609.51C362.757 607.232 364.604 605.384 366.882 605.384C369.161 605.384 371.008 607.232 371.008 609.51Z" fill="#467BF0"/>
<path d="M431.516 609.51C431.516 611.789 429.669 613.636 427.391 613.636C425.112 613.636 423.265 611.789 423.265 609.51C423.265 607.232 425.112 605.384 427.391 605.384C429.669 605.384 431.516 607.232 431.516 609.51Z" fill="#467BF0"/>
<path d="M189.483 670.018C189.483 672.297 187.636 674.144 185.358 674.144C183.079 674.144 181.232 672.297 181.232 670.018C181.232 667.74 183.079 665.893 185.358 665.893C187.636 665.893 189.483 667.74 189.483 670.018Z" fill="#467BF0"/>
<path d="M249.991 670.018C249.991 672.297 248.144 674.144 245.866 674.144C243.587 674.144 241.74 672.297 241.74 670.018C241.74 667.74 243.587 665.893 245.866 665.893C248.144 665.893 249.991 667.74 249.991 670.018Z" fill="#467BF0"/>
<path d="M310.5 670.018C310.5 672.297 308.653 674.144 306.374 674.144C304.096 674.144 302.249 672.297 302.249 670.018C302.249 667.74 304.096 665.893 306.374 665.893C308.653 665.893 310.5 667.74 310.5 670.018Z" fill="#467BF0"/>
<path d="M371.008 670.018C371.008 672.297 369.161 674.144 366.882 674.144C364.604 674.144 362.757 672.297 362.757 670.018C362.757 667.74 364.604 665.893 366.882 665.893C369.161 665.893 371.008 667.74 371.008 670.018Z" fill="#467BF0"/>
<path d="M431.516 670.018C431.516 672.297 429.669 674.144 427.391 674.144C425.112 674.144 423.265 672.297 423.265 670.018C423.265 667.74 425.112 665.893 427.391 665.893C429.669 665.893 431.516 667.74 431.516 670.018Z" fill="#467BF0"/>
<path d="M548.7 310.865C546.421 310.865 544.574 309.018 544.574 306.739C544.574 304.461 546.421 302.614 548.7 302.614C550.978 302.614 552.825 304.461 552.825 306.739C552.825 309.018 550.978 310.865 548.7 310.865Z" fill="#467BF0"/>
<path d="M548.7 371.373C546.421 371.373 544.574 369.526 544.574 367.247C544.574 364.969 546.421 363.122 548.7 363.122C550.978 363.122 552.825 364.969 552.825 367.247C552.825 369.526 550.978 371.373 548.7 371.373Z" fill="#467BF0"/>
<path d="M488.192 310.865C485.913 310.865 484.066 309.017 484.066 306.739C484.066 304.461 485.913 302.613 488.192 302.613C490.47 302.613 492.317 304.461 492.317 306.739C492.317 309.017 490.47 310.865 488.192 310.865Z" fill="#467BF0"/>
<path d="M488.192 371.373C485.913 371.373 484.066 369.526 484.066 367.247C484.066 364.969 485.913 363.122 488.192 363.122C490.47 363.122 492.317 364.969 492.317 367.247C492.317 369.526 490.47 371.373 488.192 371.373Z" fill="#467BF0"/>
<path d="M427.683 129.34C425.405 129.34 423.558 127.493 423.558 125.214C423.558 122.936 425.405 121.089 427.683 121.089C429.962 121.089 431.809 122.936 431.809 125.214C431.809 127.493 429.962 129.34 427.683 129.34Z" fill="#467BF0"/>
<path d="M427.683 189.848C425.405 189.848 423.558 188.001 423.558 185.723C423.558 183.444 425.405 181.597 427.683 181.597C429.962 181.597 431.809 183.444 431.809 185.723C431.809 188.001 429.962 189.848 427.683 189.848Z" fill="#467BF0"/>
<path d="M427.683 250.356C425.405 250.356 423.558 248.509 423.558 246.231C423.558 243.952 425.405 242.105 427.683 242.105C429.962 242.105 431.809 243.952 431.809 246.231C431.809 248.509 429.962 250.356 427.683 250.356Z" fill="#467BF0"/>
<path d="M427.683 310.865C425.405 310.865 423.558 309.017 423.558 306.739C423.558 304.461 425.405 302.613 427.683 302.613C429.962 302.613 431.809 304.461 431.809 306.739C431.809 309.017 429.962 310.865 427.683 310.865Z" fill="#467BF0"/>
<path d="M427.683 371.373C425.405 371.373 423.558 369.526 423.558 367.247C423.558 364.969 425.405 363.122 427.683 363.122C429.962 363.122 431.809 364.969 431.809 367.247C431.809 369.526 429.962 371.373 427.683 371.373Z" fill="#467BF0"/>
<path d="M367.175 129.34C364.897 129.34 363.05 127.493 363.05 125.214C363.05 122.936 364.897 121.089 367.175 121.089C369.454 121.089 371.301 122.936 371.301 125.214C371.301 127.493 369.454 129.34 367.175 129.34Z" fill="#467BF0"/>
<path d="M367.175 189.848C364.897 189.848 363.05 188.001 363.05 185.723C363.05 183.444 364.897 181.597 367.175 181.597C369.454 181.597 371.301 183.444 371.301 185.723C371.301 188.001 369.454 189.848 367.175 189.848Z" fill="#467BF0"/>
<path d="M367.175 250.356C364.897 250.356 363.05 248.509 363.05 246.231C363.05 243.952 364.897 242.105 367.175 242.105C369.454 242.105 371.301 243.952 371.301 246.231C371.301 248.509 369.454 250.356 367.175 250.356Z" fill="#467BF0"/>
<path d="M367.175 310.865C364.897 310.865 363.05 309.017 363.05 306.739C363.05 304.461 364.897 302.613 367.175 302.613C369.454 302.613 371.301 304.461 371.301 306.739C371.301 309.017 369.454 310.865 367.175 310.865Z" fill="#467BF0"/>
<path d="M367.175 371.373C364.897 371.373 363.05 369.526 363.05 367.247C363.05 364.969 364.897 363.122 367.175 363.122C369.454 363.122 371.301 364.969 371.301 367.247C371.301 369.526 369.454 371.373 367.175 371.373Z" fill="#467BF0"/>
<path d="M306.667 129.34C304.388 129.34 302.541 127.493 302.541 125.214C302.541 122.936 304.388 121.089 306.667 121.089C308.945 121.089 310.792 122.936 310.792 125.214C310.792 127.493 308.945 129.34 306.667 129.34Z" fill="#467BF0"/>
<path d="M306.667 189.848C304.388 189.848 302.541 188.001 302.541 185.723C302.541 183.444 304.388 181.597 306.667 181.597C308.945 181.597 310.792 183.444 310.792 185.723C310.792 188.001 308.945 189.848 306.667 189.848Z" fill="#467BF0"/>
<path d="M306.667 250.356C304.388 250.356 302.541 248.509 302.541 246.231C302.541 243.952 304.388 242.105 306.667 242.105C308.945 242.105 310.792 243.952 310.792 246.231C310.792 248.509 308.945 250.356 306.667 250.356Z" fill="#467BF0"/>
<path d="M306.667 310.865C304.388 310.865 302.541 309.017 302.541 306.739C302.541 304.461 304.388 302.613 306.667 302.613C308.945 302.613 310.792 304.461 310.792 306.739C310.792 309.017 308.945 310.865 306.667 310.865Z" fill="#467BF0"/>
<path d="M306.667 371.373C304.388 371.373 302.541 369.526 302.541 367.247C302.541 364.969 304.388 363.122 306.667 363.122C308.945 363.122 310.792 364.969 310.792 367.247C310.792 369.526 308.945 371.373 306.667 371.373Z" fill="#467BF0"/>
<path d="M246.159 129.34C243.88 129.34 242.033 127.493 242.033 125.214C242.033 122.936 243.88 121.089 246.159 121.089C248.437 121.089 250.284 122.936 250.284 125.214C250.284 127.493 248.437 129.34 246.159 129.34Z" fill="#467BF0"/>
<path d="M246.159 189.848C243.88 189.848 242.033 188.001 242.033 185.723C242.033 183.444 243.88 181.597 246.159 181.597C248.437 181.597 250.284 183.444 250.284 185.723C250.284 188.001 248.437 189.848 246.159 189.848Z" fill="#467BF0"/>
<path d="M246.159 250.356C243.88 250.356 242.033 248.509 242.033 246.231C242.033 243.952 243.88 242.105 246.159 242.105C248.437 242.105 250.284 243.952 250.284 246.231C250.284 248.509 248.437 250.356 246.159 250.356Z" fill="#467BF0"/>
<path d="M246.159 310.865C243.88 310.865 242.033 309.018 242.033 306.739C242.033 304.461 243.88 302.614 246.159 302.614C248.437 302.614 250.284 304.461 250.284 306.739C250.284 309.018 248.437 310.865 246.159 310.865Z" fill="#467BF0"/>
<path d="M246.159 371.373C243.88 371.373 242.033 369.526 242.033 367.247C242.033 364.969 243.88 363.122 246.159 363.122C248.437 363.122 250.284 364.969 250.284 367.247C250.284 369.526 248.437 371.373 246.159 371.373Z" fill="#467BF0"/>
<path d="M185.65 129.34C183.372 129.34 181.525 127.493 181.525 125.214C181.525 122.936 183.372 121.089 185.65 121.089C187.929 121.089 189.776 122.936 189.776 125.214C189.776 127.493 187.929 129.34 185.65 129.34Z" fill="#467BF0"/>
<path d="M185.65 189.848C183.372 189.848 181.525 188.001 181.525 185.723C181.525 183.444 183.372 181.597 185.65 181.597C187.929 181.597 189.776 183.444 189.776 185.723C189.776 188.001 187.929 189.848 185.65 189.848Z" fill="#467BF0"/>
<path d="M185.65 250.356C183.372 250.356 181.525 248.509 181.525 246.231C181.525 243.952 183.372 242.105 185.65 242.105C187.929 242.105 189.776 243.952 189.776 246.231C189.776 248.509 187.929 250.356 185.65 250.356Z" fill="#467BF0"/>
<path d="M185.65 310.865C183.372 310.865 181.525 309.018 181.525 306.739C181.525 304.461 183.372 302.614 185.65 302.614C187.929 302.614 189.776 304.461 189.776 306.739C189.776 309.018 187.929 310.865 185.65 310.865Z" fill="#467BF0"/>
<path d="M185.65 371.373C183.372 371.373 181.525 369.526 181.525 367.247C181.525 364.969 183.372 363.122 185.65 363.122C187.929 363.122 189.776 364.969 189.776 367.247C189.776 369.526 187.929 371.373 185.65 371.373Z" fill="#467BF0"/>
<path d="M125.142 129.34C122.864 129.34 121.017 127.493 121.017 125.214C121.017 122.936 122.864 121.089 125.142 121.089C127.421 121.089 129.268 122.936 129.268 125.214C129.268 127.493 127.421 129.34 125.142 129.34Z" fill="#467BF0"/>
<path d="M125.142 189.848C122.864 189.848 121.017 188.001 121.017 185.723C121.017 183.444 122.864 181.597 125.142 181.597C127.421 181.597 129.268 183.444 129.268 185.723C129.268 188.001 127.421 189.848 125.142 189.848Z" fill="#467BF0"/>
<path d="M125.142 250.356C122.864 250.356 121.017 248.509 121.017 246.231C121.017 243.952 122.864 242.105 125.142 242.105C127.421 242.105 129.268 243.952 129.268 246.231C129.268 248.509 127.421 250.356 125.142 250.356Z" fill="#467BF0"/>
<path d="M125.142 310.865C122.864 310.865 121.017 309.017 121.017 306.739C121.017 304.461 122.864 302.613 125.142 302.613C127.421 302.613 129.268 304.461 129.268 306.739C129.268 309.017 127.421 310.865 125.142 310.865Z" fill="#467BF0"/>
<path d="M125.142 371.373C122.864 371.373 121.017 369.526 121.017 367.247C121.017 364.969 122.864 363.122 125.142 363.122C127.421 363.122 129.268 364.969 129.268 367.247C129.268 369.526 127.421 371.373 125.142 371.373Z" fill="#467BF0"/>
<path d="M64.6337 129.34C62.3552 129.34 60.5081 127.493 60.5081 125.214C60.5081 122.936 62.3552 121.089 64.6337 121.089C66.9122 121.089 68.7592 122.936 68.7592 125.214C68.7592 127.493 66.9122 129.34 64.6337 129.34Z" fill="#467BF0"/>
<path d="M64.6337 189.848C62.3552 189.848 60.5081 188.001 60.5081 185.723C60.5081 183.444 62.3552 181.597 64.6337 181.597C66.9122 181.597 68.7592 183.444 68.7592 185.723C68.7592 188.001 66.9122 189.848 64.6337 189.848Z" fill="#467BF0"/>
<path d="M64.6337 250.356C62.3552 250.356 60.5081 248.509 60.5081 246.231C60.5081 243.952 62.3552 242.105 64.6337 242.105C66.9122 242.105 68.7592 243.952 68.7592 246.231C68.7592 248.509 66.9122 250.356 64.6337 250.356Z" fill="#467BF0"/>
<path d="M64.6337 310.865C62.3552 310.865 60.5081 309.017 60.5081 306.739C60.5081 304.461 62.3552 302.613 64.6337 302.613C66.9122 302.613 68.7592 304.461 68.7592 306.739C68.7592 309.017 66.9122 310.865 64.6337 310.865Z" fill="#467BF0"/>
<path d="M64.6337 371.373C62.3552 371.373 60.5081 369.526 60.5081 367.247C60.5081 364.969 62.3552 363.122 64.6337 363.122C66.9122 363.122 68.7592 364.969 68.7592 367.247C68.7592 369.526 66.9122 371.373 64.6337 371.373Z" fill="#467BF0"/>
<path d="M4.12556 129.34C1.84708 129.34 5.1902e-06 127.493 5.2898e-06 125.214C5.38939e-06 122.936 1.84708 121.089 4.12556 121.089C6.40405 121.089 8.25112 122.936 8.25112 125.214C8.25112 127.493 6.40405 129.34 4.12556 129.34Z" fill="#467BF0"/>
<path d="M4.12556 189.848C1.84708 189.848 2.5453e-06 188.001 2.6449e-06 185.723C2.74449e-06 183.444 1.84708 181.597 4.12556 181.597C6.40405 181.597 8.25112 183.444 8.25112 185.723C8.25112 188.001 6.40405 189.848 4.12556 189.848Z" fill="#467BF0"/>
<path d="M4.12556 250.356C1.84708 250.356 -9.95957e-08 248.509 0 246.231C9.95957e-08 243.952 1.84708 242.105 4.12556 242.105C6.40404 242.105 8.25112 243.952 8.25112 246.231C8.25112 248.509 6.40404 250.356 4.12556 250.356Z" fill="#467BF0"/>
<path d="M4.12562 310.865C1.84713 310.865 5.82907e-05 309.018 5.83903e-05 306.739C5.84899e-05 304.461 1.84713 302.613 4.12562 302.613C6.4041 302.613 8.25118 304.461 8.25118 306.739C8.25118 309.018 6.4041 310.865 4.12562 310.865Z" fill="#467BF0"/>
<path d="M4.12562 371.373C1.84713 371.373 5.56458e-05 369.526 5.57454e-05 367.247C5.5845e-05 364.969 1.84713 363.122 4.12562 363.122C6.4041 363.122 8.25117 364.969 8.25117 367.247C8.25117 369.526 6.4041 371.373 4.12562 371.373Z" fill="#467BF0"/>
<path d="M310.514 4.12556C310.514 6.40404 308.667 8.25112 306.389 8.25112C304.11 8.25112 302.263 6.40404 302.263 4.12556C302.263 1.84708 304.11 0 306.389 0C308.667 0 310.514 1.84708 310.514 4.12556Z" fill="#467BF0"/>
<path d="M371.021 4.12556C371.021 6.40404 369.174 8.25112 366.896 8.25112C364.617 8.25112 362.77 6.40404 362.77 4.12556C362.77 1.84708 364.617 0 366.896 0C369.174 0 371.021 1.84708 371.021 4.12556Z" fill="#467BF0"/>
<path d="M431.53 4.12556C431.53 6.40404 429.683 8.25112 427.404 8.25112C425.126 8.25112 423.279 6.40404 423.279 4.12556C423.279 1.84708 425.126 0 427.404 0C429.683 0 431.53 1.84708 431.53 4.12556Z" fill="#467BF0"/>
<path d="M492.038 4.12556C492.038 6.40404 490.191 8.25112 487.912 8.25112C485.634 8.25112 483.787 6.40404 483.787 4.12556C483.787 1.84708 485.634 0 487.912 0C490.191 0 492.038 1.84708 492.038 4.12556Z" fill="#467BF0"/>
<path d="M552.546 4.12556C552.546 6.40404 550.699 8.25112 548.421 8.25112C546.142 8.25112 544.295 6.40404 544.295 4.12556C544.295 1.84708 546.142 0 548.421 0C550.699 0 552.546 1.84708 552.546 4.12556Z" fill="#467BF0"/>
<path d="M310.513 64.6338C310.513 66.9123 308.666 68.7594 306.388 68.7594C304.109 68.7594 302.262 66.9123 302.262 64.6338C302.262 62.3553 304.109 60.5082 306.388 60.5082C308.666 60.5082 310.513 62.3553 310.513 64.6338Z" fill="#467BF0"/>
<path d="M371.021 64.6338C371.021 66.9123 369.174 68.7594 366.896 68.7594C364.617 68.7594 362.77 66.9123 362.77 64.6338C362.77 62.3553 364.617 60.5082 366.896 60.5082C369.174 60.5082 371.021 62.3553 371.021 64.6338Z" fill="#467BF0"/>
<path d="M431.53 64.6338C431.53 66.9123 429.683 68.7594 427.404 68.7594C425.126 68.7594 423.279 66.9123 423.279 64.6338C423.279 62.3553 425.126 60.5082 427.404 60.5082C429.683 60.5082 431.53 62.3553 431.53 64.6338Z" fill="#467BF0"/>
<path d="M492.038 64.6338C492.038 66.9123 490.191 68.7594 487.912 68.7594C485.634 68.7594 483.787 66.9123 483.787 64.6338C483.787 62.3553 485.634 60.5082 487.912 60.5082C490.191 60.5082 492.038 62.3553 492.038 64.6338Z" fill="#467BF0"/>
<path d="M552.546 64.6338C552.546 66.9123 550.699 68.7594 548.421 68.7594C546.142 68.7594 544.295 66.9123 544.295 64.6338C544.295 62.3553 546.142 60.5082 548.421 60.5082C550.699 60.5082 552.546 62.3553 552.546 64.6338Z" fill="#467BF0"/>
<path d="M310.513 125.142C310.513 127.421 308.666 129.268 306.388 129.268C304.109 129.268 302.262 127.421 302.262 125.142C302.262 122.864 304.109 121.016 306.388 121.016C308.666 121.016 310.513 122.864 310.513 125.142Z" fill="#467BF0"/>
<path d="M371.021 125.142C371.021 127.421 369.174 129.268 366.896 129.268C364.617 129.268 362.77 127.421 362.77 125.142C362.77 122.864 364.617 121.016 366.896 121.016C369.174 121.016 371.021 122.864 371.021 125.142Z" fill="#467BF0"/>
<path d="M431.53 125.142C431.53 127.421 429.683 129.268 427.404 129.268C425.126 129.268 423.279 127.421 423.279 125.142C423.279 122.864 425.126 121.016 427.404 121.016C429.683 121.016 431.53 122.864 431.53 125.142Z" fill="#467BF0"/>
<path d="M492.038 125.142C492.038 127.421 490.191 129.268 487.912 129.268C485.634 129.268 483.787 127.421 483.787 125.142C483.787 122.864 485.634 121.016 487.912 121.016C490.191 121.016 492.038 122.864 492.038 125.142Z" fill="#467BF0"/>
<path d="M552.546 125.142C552.546 127.421 550.699 129.268 548.421 129.268C546.142 129.268 544.295 127.421 544.295 125.142C544.295 122.864 546.142 121.016 548.421 121.016C550.699 121.016 552.546 122.864 552.546 125.142Z" fill="#467BF0"/>
<path d="M310.513 185.65C310.513 187.929 308.666 189.776 306.388 189.776C304.109 189.776 302.262 187.929 302.262 185.65C302.262 183.372 304.109 181.525 306.388 181.525C308.666 181.525 310.513 183.372 310.513 185.65Z" fill="#467BF0"/>
<path d="M371.021 185.65C371.021 187.929 369.174 189.776 366.896 189.776C364.617 189.776 362.77 187.929 362.77 185.65C362.77 183.372 364.617 181.525 366.896 181.525C369.174 181.525 371.021 183.372 371.021 185.65Z" fill="#467BF0"/>
<path d="M431.53 185.65C431.53 187.929 429.683 189.776 427.404 189.776C425.126 189.776 423.279 187.929 423.279 185.65C423.279 183.372 425.126 181.525 427.404 181.525C429.683 181.525 431.53 183.372 431.53 185.65Z" fill="#467BF0"/>
<path d="M492.038 185.65C492.038 187.929 490.191 189.776 487.912 189.776C485.634 189.776 483.787 187.929 483.787 185.65C483.787 183.372 485.634 181.525 487.912 181.525C490.191 181.525 492.038 183.372 492.038 185.65Z" fill="#467BF0"/>
<path d="M552.546 185.65C552.546 187.929 550.699 189.776 548.421 189.776C546.142 189.776 544.295 187.929 544.295 185.65C544.295 183.372 546.142 181.525 548.421 181.525C550.699 181.525 552.546 183.372 552.546 185.65Z" fill="#467BF0"/>
<path d="M310.513 246.158C310.513 248.437 308.666 250.284 306.388 250.284C304.109 250.284 302.262 248.437 302.262 246.158C302.262 243.88 304.109 242.033 306.388 242.033C308.666 242.033 310.513 243.88 310.513 246.158Z" fill="#467BF0"/>
<path d="M371.021 246.158C371.021 248.437 369.174 250.284 366.896 250.284C364.617 250.284 362.77 248.437 362.77 246.158C362.77 243.88 364.617 242.033 366.896 242.033C369.174 242.033 371.021 243.88 371.021 246.158Z" fill="#467BF0"/>
<path d="M431.53 246.158C431.53 248.437 429.683 250.284 427.404 250.284C425.126 250.284 423.279 248.437 423.279 246.158C423.279 243.88 425.126 242.033 427.404 242.033C429.683 242.033 431.53 243.88 431.53 246.158Z" fill="#467BF0"/>
<path d="M492.038 246.158C492.038 248.437 490.191 250.284 487.912 250.284C485.634 250.284 483.787 248.437 483.787 246.158C483.787 243.88 485.634 242.033 487.912 242.033C490.191 242.033 492.038 243.88 492.038 246.158Z" fill="#467BF0"/>
<path d="M552.546 246.158C552.546 248.437 550.699 250.284 548.421 250.284C546.142 250.284 544.295 248.437 544.295 246.158C544.295 243.88 546.142 242.033 548.421 242.033C550.699 242.033 552.546 243.88 552.546 246.158Z" fill="#467BF0"/>
<path d="M310.513 306.667C310.513 308.945 308.666 310.792 306.388 310.792C304.109 310.792 302.262 308.945 302.262 306.667C302.262 304.388 304.109 302.541 306.388 302.541C308.666 302.541 310.513 304.388 310.513 306.667Z" fill="#467BF0"/>
<path d="M371.021 306.667C371.021 308.945 369.174 310.792 366.896 310.792C364.617 310.792 362.77 308.945 362.77 306.667C362.77 304.388 364.617 302.541 366.896 302.541C369.174 302.541 371.021 304.388 371.021 306.667Z" fill="#467BF0"/>
<path d="M431.53 306.667C431.53 308.945 429.683 310.792 427.404 310.792C425.126 310.792 423.279 308.945 423.279 306.667C423.279 304.388 425.126 302.541 427.404 302.541C429.683 302.541 431.53 304.388 431.53 306.667Z" fill="#467BF0"/>
<path d="M492.038 306.667C492.038 308.945 490.191 310.792 487.912 310.792C485.634 310.792 483.787 308.945 483.787 306.667C483.787 304.388 485.634 302.541 487.912 302.541C490.191 302.541 492.038 304.388 492.038 306.667Z" fill="#467BF0"/>
<path d="M552.546 306.667C552.546 308.945 550.699 310.792 548.421 310.792C546.142 310.792 544.295 308.945 544.295 306.667C544.295 304.388 546.142 302.541 548.421 302.541C550.699 302.541 552.546 304.388 552.546 306.667Z" fill="#467BF0"/>
<path d="M310.513 367.175C310.513 369.453 308.666 371.3 306.388 371.3C304.109 371.3 302.262 369.453 302.262 367.175C302.262 364.896 304.109 363.049 306.388 363.049C308.666 363.049 310.513 364.896 310.513 367.175Z" fill="#467BF0"/>
<path d="M371.021 367.175C371.021 369.453 369.174 371.3 366.896 371.3C364.617 371.3 362.77 369.453 362.77 367.175C362.77 364.896 364.617 363.049 366.896 363.049C369.174 363.049 371.021 364.896 371.021 367.175Z" fill="#467BF0"/>
<path d="M431.53 367.175C431.53 369.453 429.683 371.3 427.404 371.3C425.126 371.3 423.279 369.453 423.279 367.175C423.279 364.896 425.126 363.049 427.404 363.049C429.683 363.049 431.53 364.896 431.53 367.175Z" fill="#467BF0"/>
<path d="M492.038 367.175C492.038 369.453 490.191 371.3 487.912 371.3C485.634 371.3 483.787 369.453 483.787 367.175C483.787 364.896 485.634 363.049 487.912 363.049C490.191 363.049 492.038 364.896 492.038 367.175Z" fill="#467BF0"/>
<path d="M552.546 367.175C552.546 369.453 550.699 371.3 548.421 371.3C546.142 371.3 544.295 369.453 544.295 367.175C544.295 364.896 546.142 363.049 548.421 363.049C550.699 363.049 552.546 364.896 552.546 367.175Z" fill="#467BF0"/>
<path d="M310.513 427.683C310.513 429.962 308.666 431.809 306.388 431.809C304.109 431.809 302.262 429.962 302.262 427.683C302.262 425.405 304.109 423.558 306.388 423.558C308.666 423.558 310.513 425.405 310.513 427.683Z" fill="#467BF0"/>
<path d="M371.021 427.683C371.021 429.962 369.174 431.809 366.896 431.809C364.617 431.809 362.77 429.962 362.77 427.683C362.77 425.405 364.617 423.558 366.896 423.558C369.174 423.558 371.021 425.405 371.021 427.683Z" fill="#467BF0"/>
<path d="M431.53 427.683C431.53 429.962 429.683 431.809 427.404 431.809C425.126 431.809 423.279 429.962 423.279 427.683C423.279 425.405 425.126 423.558 427.404 423.558C429.683 423.558 431.53 425.405 431.53 427.683Z" fill="#467BF0"/>
<path d="M492.038 427.683C492.038 429.962 490.191 431.809 487.912 431.809C485.634 431.809 483.787 429.962 483.787 427.683C483.787 425.405 485.634 423.558 487.912 423.558C490.191 423.558 492.038 425.405 492.038 427.683Z" fill="#467BF0"/>
<path d="M552.546 427.683C552.546 429.962 550.699 431.809 548.421 431.809C546.142 431.809 544.295 429.962 544.295 427.683C544.295 425.405 546.142 423.558 548.421 423.558C550.699 423.558 552.546 425.405 552.546 427.683Z" fill="#467BF0"/>
<path d="M310.513 488.191C310.513 490.47 308.666 492.317 306.388 492.317C304.109 492.317 302.262 490.47 302.262 488.191C302.262 485.913 304.109 484.066 306.388 484.066C308.666 484.066 310.513 485.913 310.513 488.191Z" fill="#467BF0"/>
<path d="M371.021 488.191C371.021 490.47 369.174 492.317 366.896 492.317C364.617 492.317 362.77 490.47 362.77 488.191C362.77 485.913 364.617 484.066 366.896 484.066C369.174 484.066 371.021 485.913 371.021 488.191Z" fill="#467BF0"/>
<path d="M431.53 488.191C431.53 490.47 429.683 492.317 427.404 492.317C425.126 492.317 423.279 490.47 423.279 488.191C423.279 485.913 425.126 484.066 427.404 484.066C429.683 484.066 431.53 485.913 431.53 488.191Z" fill="#467BF0"/>
<path d="M492.038 488.191C492.038 490.47 490.191 492.317 487.912 492.317C485.634 492.317 483.787 490.47 483.787 488.191C483.787 485.913 485.634 484.066 487.912 484.066C490.191 484.066 492.038 485.913 492.038 488.191Z" fill="#467BF0"/>
<path d="M552.546 488.191C552.546 490.47 550.699 492.317 548.421 492.317C546.142 492.317 544.295 490.47 544.295 488.191C544.295 485.913 546.142 484.066 548.421 484.066C550.699 484.066 552.546 485.913 552.546 488.191Z" fill="#467BF0"/>
<path d="M310.513 548.699C310.513 550.978 308.666 552.825 306.388 552.825C304.109 552.825 302.262 550.978 302.262 548.699C302.262 546.421 304.109 544.574 306.388 544.574C308.666 544.574 310.513 546.421 310.513 548.699Z" fill="#467BF0"/>
<path d="M371.021 548.699C371.021 550.978 369.174 552.825 366.896 552.825C364.617 552.825 362.77 550.978 362.77 548.699C362.77 546.421 364.617 544.574 366.896 544.574C369.174 544.574 371.021 546.421 371.021 548.699Z" fill="#467BF0"/>
<path d="M431.53 548.699C431.53 550.978 429.683 552.825 427.404 552.825C425.126 552.825 423.279 550.978 423.279 548.699C423.279 546.421 425.126 544.574 427.404 544.574C429.683 544.574 431.53 546.421 431.53 548.699Z" fill="#467BF0"/>
<path d="M492.038 548.699C492.038 550.978 490.191 552.825 487.912 552.825C485.634 552.825 483.787 550.978 483.787 548.699C483.787 546.421 485.634 544.574 487.912 544.574C490.191 544.574 492.038 546.421 492.038 548.699Z" fill="#467BF0"/>
<path d="M552.546 548.699C552.546 550.978 550.699 552.825 548.421 552.825C546.142 552.825 544.295 550.978 544.295 548.699C544.295 546.421 546.142 544.574 548.421 544.574C550.699 544.574 552.546 546.421 552.546 548.699Z" fill="#467BF0"/>
<path d="M911.192 432.251C908.913 432.251 907.066 430.404 907.066 428.126C907.066 425.847 908.913 424 911.192 424C913.47 424 915.317 425.847 915.317 428.126C915.317 430.404 913.47 432.251 911.192 432.251Z" fill="#467BF0"/>
<path d="M911.192 492.759C908.913 492.759 907.066 490.912 907.066 488.634C907.066 486.355 908.913 484.508 911.192 484.508C913.47 484.508 915.317 486.355 915.317 488.634C915.317 490.912 913.47 492.759 911.192 492.759Z" fill="#467BF0"/>
<path d="M911.192 553.268C908.913 553.268 907.066 551.421 907.066 549.142C907.066 546.864 908.913 545.016 911.192 545.016C913.47 545.016 915.317 546.864 915.317 549.142C915.317 551.421 913.47 553.268 911.192 553.268Z" fill="#467BF0"/>
<path d="M911.192 613.776C908.913 613.776 907.066 611.929 907.066 609.65C907.066 607.372 908.913 605.525 911.192 605.525C913.47 605.525 915.317 607.372 915.317 609.65C915.317 611.929 913.47 613.776 911.192 613.776Z" fill="#467BF0"/>
<path d="M911.192 674.284C908.913 674.284 907.066 672.437 907.066 670.158C907.066 667.88 908.913 666.033 911.192 666.033C913.47 666.033 915.317 667.88 915.317 670.158C915.317 672.437 913.47 674.284 911.192 674.284Z" fill="#467BF0"/>
<path d="M850.683 432.251C848.405 432.251 846.558 430.404 846.558 428.126C846.558 425.847 848.405 424 850.683 424C852.962 424 854.809 425.847 854.809 428.126C854.809 430.404 852.962 432.251 850.683 432.251Z" fill="#467BF0"/>
<path d="M850.683 492.759C848.405 492.759 846.558 490.912 846.558 488.634C846.558 486.355 848.405 484.508 850.683 484.508C852.962 484.508 854.809 486.355 854.809 488.634C854.809 490.912 852.962 492.759 850.683 492.759Z" fill="#467BF0"/>
<path d="M850.683 553.268C848.405 553.268 846.558 551.421 846.558 549.142C846.558 546.864 848.405 545.016 850.683 545.016C852.962 545.016 854.809 546.864 854.809 549.142C854.809 551.421 852.962 553.268 850.683 553.268Z" fill="#467BF0"/>
<path d="M850.683 613.776C848.405 613.776 846.558 611.929 846.558 609.65C846.558 607.372 848.405 605.525 850.683 605.525C852.962 605.525 854.809 607.372 854.809 609.65C854.809 611.929 852.962 613.776 850.683 613.776Z" fill="#467BF0"/>
<path d="M850.683 674.284C848.405 674.284 846.558 672.437 846.558 670.158C846.558 667.88 848.405 666.033 850.683 666.033C852.962 666.033 854.809 667.88 854.809 670.158C854.809 672.437 852.962 674.284 850.683 674.284Z" fill="#467BF0"/>
<path d="M790.175 432.251C787.897 432.251 786.05 430.404 786.05 428.126C786.05 425.847 787.897 424 790.175 424C792.454 424 794.301 425.847 794.301 428.126C794.301 430.404 792.454 432.251 790.175 432.251Z" fill="#467BF0"/>
<path d="M790.175 492.759C787.897 492.759 786.05 490.912 786.05 488.634C786.05 486.355 787.897 484.508 790.175 484.508C792.454 484.508 794.301 486.355 794.301 488.634C794.301 490.912 792.454 492.759 790.175 492.759Z" fill="#467BF0"/>
<path d="M790.175 553.268C787.897 553.268 786.05 551.421 786.05 549.142C786.05 546.864 787.897 545.016 790.175 545.016C792.454 545.016 794.301 546.864 794.301 549.142C794.301 551.421 792.454 553.268 790.175 553.268Z" fill="#467BF0"/>
<path d="M790.175 613.776C787.897 613.776 786.05 611.929 786.05 609.65C786.05 607.372 787.897 605.525 790.175 605.525C792.454 605.525 794.301 607.372 794.301 609.65C794.301 611.929 792.454 613.776 790.175 613.776Z" fill="#467BF0"/>
<path d="M790.175 674.284C787.897 674.284 786.05 672.437 786.05 670.158C786.05 667.88 787.897 666.033 790.175 666.033C792.454 666.033 794.301 667.88 794.301 670.158C794.301 672.437 792.454 674.284 790.175 674.284Z" fill="#467BF0"/>
<path d="M729.667 432.251C727.388 432.251 725.541 430.404 725.541 428.126C725.541 425.847 727.388 424 729.667 424C731.945 424 733.792 425.847 733.792 428.126C733.792 430.404 731.945 432.251 729.667 432.251Z" fill="#467BF0"/>
<path d="M729.667 492.759C727.388 492.759 725.541 490.912 725.541 488.634C725.541 486.355 727.388 484.508 729.667 484.508C731.945 484.508 733.792 486.355 733.792 488.634C733.792 490.912 731.945 492.759 729.667 492.759Z" fill="#467BF0"/>
<path d="M729.667 553.268C727.388 553.268 725.541 551.421 725.541 549.142C725.541 546.864 727.388 545.016 729.667 545.016C731.945 545.016 733.792 546.864 733.792 549.142C733.792 551.421 731.945 553.268 729.667 553.268Z" fill="#467BF0"/>
<path d="M729.667 613.776C727.388 613.776 725.541 611.929 725.541 609.65C725.541 607.372 727.388 605.525 729.667 605.525C731.945 605.525 733.792 607.372 733.792 609.65C733.792 611.929 731.945 613.776 729.667 613.776Z" fill="#467BF0"/>
<path d="M729.667 674.284C727.388 674.284 725.541 672.437 725.541 670.158C725.541 667.88 727.388 666.033 729.667 666.033C731.945 666.033 733.792 667.88 733.792 670.158C733.792 672.437 731.945 674.284 729.667 674.284Z" fill="#467BF0"/>
<path d="M669.159 432.251C666.88 432.251 665.033 430.404 665.033 428.126C665.033 425.847 666.88 424 669.159 424C671.437 424 673.284 425.847 673.284 428.126C673.284 430.404 671.437 432.251 669.159 432.251Z" fill="#467BF0"/>
<path d="M669.159 492.759C666.88 492.759 665.033 490.912 665.033 488.634C665.033 486.355 666.88 484.508 669.159 484.508C671.437 484.508 673.284 486.355 673.284 488.634C673.284 490.912 671.437 492.759 669.159 492.759Z" fill="#467BF0"/>
<path d="M669.159 553.268C666.88 553.268 665.033 551.421 665.033 549.142C665.033 546.864 666.88 545.016 669.159 545.016C671.437 545.016 673.284 546.864 673.284 549.142C673.284 551.421 671.437 553.268 669.159 553.268Z" fill="#467BF0"/>
<path d="M669.159 613.776C666.88 613.776 665.033 611.929 665.033 609.65C665.033 607.372 666.88 605.525 669.159 605.525C671.437 605.525 673.284 607.372 673.284 609.65C673.284 611.929 671.437 613.776 669.159 613.776Z" fill="#467BF0"/>
<path d="M669.159 674.284C666.88 674.284 665.033 672.437 665.033 670.158C665.033 667.88 666.88 666.033 669.159 666.033C671.437 666.033 673.284 667.88 673.284 670.158C673.284 672.437 671.437 674.284 669.159 674.284Z" fill="#467BF0"/>
<path d="M608.65 432.251C606.372 432.251 604.525 430.404 604.525 428.126C604.525 425.847 606.372 424 608.65 424C610.929 424 612.776 425.847 612.776 428.126C612.776 430.404 610.929 432.251 608.65 432.251Z" fill="#467BF0"/>
<path d="M608.65 492.759C606.372 492.759 604.525 490.912 604.525 488.634C604.525 486.355 606.372 484.508 608.65 484.508C610.929 484.508 612.776 486.355 612.776 488.634C612.776 490.912 610.929 492.759 608.65 492.759Z" fill="#467BF0"/>
<path d="M608.65 553.268C606.372 553.268 604.525 551.421 604.525 549.142C604.525 546.864 606.372 545.016 608.65 545.016C610.929 545.016 612.776 546.864 612.776 549.142C612.776 551.421 610.929 553.268 608.65 553.268Z" fill="#467BF0"/>
<path d="M608.65 613.776C606.372 613.776 604.525 611.929 604.525 609.65C604.525 607.372 606.372 605.525 608.65 605.525C610.929 605.525 612.776 607.372 612.776 609.65C612.776 611.929 610.929 613.776 608.65 613.776Z" fill="#467BF0"/>
<path d="M608.65 674.284C606.372 674.284 604.525 672.437 604.525 670.158C604.525 667.88 606.372 666.033 608.65 666.033C610.929 666.033 612.776 667.88 612.776 670.158C612.776 672.437 610.929 674.284 608.65 674.284Z" fill="#467BF0"/>
<path d="M548.142 432.251C545.864 432.251 544.017 430.404 544.017 428.126C544.017 425.847 545.864 424 548.142 424C550.421 424 552.268 425.847 552.268 428.126C552.268 430.404 550.421 432.251 548.142 432.251Z" fill="#467BF0"/>
<path d="M548.142 492.759C545.864 492.759 544.017 490.912 544.017 488.634C544.017 486.355 545.864 484.508 548.142 484.508C550.421 484.508 552.268 486.355 552.268 488.634C552.268 490.912 550.421 492.759 548.142 492.759Z" fill="#467BF0"/>
<path d="M548.142 553.268C545.864 553.268 544.017 551.421 544.017 549.142C544.017 546.864 545.864 545.016 548.142 545.016C550.421 545.016 552.268 546.864 552.268 549.142C552.268 551.421 550.421 553.268 548.142 553.268Z" fill="#467BF0"/>
<path d="M548.142 613.776C545.864 613.776 544.017 611.929 544.017 609.65C544.017 607.372 545.864 605.525 548.142 605.525C550.421 605.525 552.268 607.372 552.268 609.65C552.268 611.929 550.421 613.776 548.142 613.776Z" fill="#467BF0"/>
<path d="M548.142 674.284C545.864 674.284 544.017 672.437 544.017 670.158C544.017 667.88 545.864 666.033 548.142 666.033C550.421 666.033 552.268 667.88 552.268 670.158C552.268 672.437 550.421 674.284 548.142 674.284Z" fill="#467BF0"/>
<path d="M487.634 432.251C485.355 432.251 483.508 430.404 483.508 428.126C483.508 425.847 485.355 424 487.634 424C489.912 424 491.759 425.847 491.759 428.126C491.759 430.404 489.912 432.251 487.634 432.251Z" fill="#467BF0"/>
<path d="M487.634 492.759C485.355 492.759 483.508 490.912 483.508 488.634C483.508 486.355 485.355 484.508 487.634 484.508C489.912 484.508 491.759 486.355 491.759 488.634C491.759 490.912 489.912 492.759 487.634 492.759Z" fill="#467BF0"/>
<path d="M487.634 553.268C485.355 553.268 483.508 551.421 483.508 549.142C483.508 546.864 485.355 545.016 487.634 545.016C489.912 545.016 491.759 546.864 491.759 549.142C491.759 551.421 489.912 553.268 487.634 553.268Z" fill="#467BF0"/>
<path d="M487.634 613.776C485.355 613.776 483.508 611.929 483.508 609.65C483.508 607.372 485.355 605.525 487.634 605.525C489.912 605.525 491.759 607.372 491.759 609.65C491.759 611.929 489.912 613.776 487.634 613.776Z" fill="#467BF0"/>
<path d="M487.634 674.284C485.355 674.284 483.508 672.437 483.508 670.158C483.508 667.88 485.355 666.033 487.634 666.033C489.912 666.033 491.759 667.88 491.759 670.158C491.759 672.437 489.912 674.284 487.634 674.284Z" fill="#467BF0"/>
<path d="M427.126 432.251C424.847 432.251 423 430.404 423 428.126C423 425.847 424.847 424 427.126 424C429.404 424 431.251 425.847 431.251 428.126C431.251 430.404 429.404 432.251 427.126 432.251Z" fill="#467BF0"/>
<path d="M427.126 492.759C424.847 492.759 423 490.912 423 488.634C423 486.355 424.847 484.508 427.126 484.508C429.404 484.508 431.251 486.355 431.251 488.634C431.251 490.912 429.404 492.759 427.126 492.759Z" fill="#467BF0"/>
<path d="M427.126 553.268C424.847 553.268 423 551.421 423 549.142C423 546.864 424.847 545.016 427.126 545.016C429.404 545.016 431.251 546.864 431.251 549.142C431.251 551.421 429.404 553.268 427.126 553.268Z" fill="#467BF0"/>
<path d="M427.126 613.776C424.847 613.776 423 611.929 423 609.65C423 607.372 424.847 605.525 427.126 605.525C429.404 605.525 431.251 607.372 431.251 609.65C431.251 611.929 429.404 613.776 427.126 613.776Z" fill="#467BF0"/>
<path d="M427.126 674.284C424.847 674.284 423 672.437 423 670.158C423 667.88 424.847 666.033 427.126 666.033C429.404 666.033 431.251 667.88 431.251 670.158C431.251 672.437 429.404 674.284 427.126 674.284Z" fill="#467BF0"/>
</svg>
