<svg width="173" height="46" viewBox="0 0 173 46" fill="none" xmlns="http://www.w3.org/2000/svg">
<path d="M67.5482 35.3453C66.996 35.3453 66.5482 34.8976 66.5482 34.3453V10.0066C66.5482 9.45436 66.1005 9.00664 65.5482 9.00664H58.5481C57.9958 9.00664 57.5481 8.55893 57.5481 8.00664V5.46244C57.5481 4.91016 57.9958 4.46245 58.5481 4.46245H80.2397C80.792 4.46245 81.2397 4.91016 81.2397 5.46245V8.00664C81.2397 8.55893 80.792 9.00664 80.2397 9.00664H73.1954C72.6431 9.00664 72.1954 9.45436 72.1954 10.0066V34.3453C72.1954 34.8976 71.7477 35.3453 71.1954 35.3453H67.5482Z" fill="#2C2D32"/>
<path d="M81.9305 35.3453C81.3782 35.3453 80.9305 34.8976 80.9305 34.3453V14.4626C80.9305 13.9103 81.3782 13.4626 81.9305 13.4626H85.0807C85.5835 13.4626 86.0082 13.836 86.0725 14.3346L86.2966 16.071C86.3581 16.5483 87.0279 16.6917 87.3267 16.3144C87.9905 15.4763 88.785 14.7757 89.7101 14.2126C90.8381 13.5166 92.1229 13.1045 93.5643 12.9765C94.1144 12.9276 94.5631 13.3809 94.5631 13.9332V17.8892C94.5631 18.4414 94.1154 18.8892 93.5631 18.8892H92.9748C91.7395 18.8892 90.6365 19.0803 89.6659 19.4627C88.6953 19.8451 87.9306 20.5068 87.3718 21.448C86.8424 22.3892 86.5777 23.6981 86.5777 25.3746V34.3453C86.5777 34.8976 86.1299 35.3453 85.5777 35.3453H81.9305Z" fill="#2C2D32"/>
<path d="M99.261 10.0655C98.2316 10.0655 97.3786 9.75665 96.7021 9.139C96.0551 8.52134 95.7315 7.74191 95.7315 6.80072C95.7315 5.85953 96.0551 5.09481 96.7021 4.50656C97.3786 3.88891 98.2316 3.58008 99.261 3.58008C100.29 3.58008 101.129 3.88891 101.776 4.50656C102.452 5.09481 102.79 5.85953 102.79 6.80072C102.79 7.74191 102.452 8.52134 101.776 9.139C101.129 9.75665 100.29 10.0655 99.261 10.0655ZM97.4374 35.3453C96.8851 35.3453 96.4374 34.8976 96.4374 34.3453V14.4626C96.4374 13.9103 96.8851 13.4626 97.4374 13.4626H101.085C101.637 13.4626 102.085 13.9103 102.085 14.4626V34.3453C102.085 34.8976 101.637 35.3453 101.085 35.3453H97.4374Z" fill="#2C2D32"/>
<path d="M106.773 45.0514C106.221 45.0514 105.773 44.6037 105.773 44.0514V14.4626C105.773 13.9103 106.221 13.4626 106.773 13.4626H109.98C110.458 13.4626 110.869 13.8005 110.961 14.2691L111.199 15.4717C111.283 15.8998 111.852 16.0324 112.151 15.7147C112.73 15.0999 113.413 14.5404 114.2 14.0361C115.376 13.3008 116.891 12.9332 118.744 12.9332C120.803 12.9332 122.641 13.4332 124.259 14.4332C125.876 15.4332 127.156 16.8009 128.097 18.5362C129.038 20.2715 129.509 22.2422 129.509 24.4481C129.509 26.654 129.038 28.6246 128.097 30.3599C127.156 32.0659 125.876 33.4188 124.259 34.4188C122.641 35.3894 120.803 35.8747 118.744 35.8747C117.097 35.8747 115.655 35.5659 114.42 34.9483C113.684 34.5801 113.031 34.1231 112.462 33.5772C112.107 33.2369 111.42 33.4699 111.42 33.9615V44.0514C111.42 44.6037 110.972 45.0514 110.42 45.0514H106.773ZM117.553 30.9335C119.347 30.9335 120.832 30.3305 122.009 29.1246C123.185 27.9187 123.773 26.3599 123.773 24.4481C123.773 22.5363 123.185 20.9627 122.009 19.7274C120.832 18.4921 119.347 17.8744 117.553 17.8744C115.729 17.8744 114.229 18.4921 113.052 19.7274C111.905 20.9333 111.332 22.4922 111.332 24.404C111.332 26.3158 111.905 27.8893 113.052 29.1246C114.229 30.3305 115.729 30.9335 117.553 30.9335Z" fill="#2C2D32"/>
<path fill-rule="evenodd" clip-rule="evenodd" d="M172.941 34.2028C172.941 34.7551 172.493 35.2028 171.941 35.2028L134.683 35.2028C134.131 35.2028 133.683 34.7551 133.683 34.2028L133.683 31.4443C133.683 30.8921 134.131 30.4443 134.683 30.4443L171.941 30.4443C172.493 30.4443 172.941 30.892 172.941 31.4443L172.941 34.2028Z" fill="#4C84FF"/>
<path d="M134.695 26.8754C134.143 26.8754 133.695 26.4277 133.695 25.8754V2.17969C133.695 1.6274 134.143 1.17969 134.695 1.17969H136.478C137.031 1.17969 137.478 1.6274 137.478 2.17969V25.8754C137.478 26.4277 137.031 26.8754 136.478 26.8754H134.695Z" fill="#2C2D32"/>
<path d="M142.269 5.81919C141.555 5.81919 140.96 5.60506 140.484 5.1768C140.032 4.72474 139.806 4.16562 139.806 3.49944C139.806 2.83325 140.032 2.28603 140.484 1.85777C140.96 1.40571 141.555 1.17969 142.269 1.17969C142.983 1.17969 143.566 1.40571 144.018 1.85777C144.493 2.28603 144.731 2.83325 144.731 3.49944C144.731 4.16562 144.493 4.72474 144.018 5.1768C143.566 5.60506 142.983 5.81919 142.269 5.81919ZM141.377 26.8754C140.825 26.8754 140.377 26.4277 140.377 25.8754V10.1739C140.377 9.62162 140.825 9.17391 141.377 9.17391H143.16C143.713 9.17391 144.16 9.62162 144.16 10.1739V25.8754C144.16 26.4277 143.713 26.8754 143.16 26.8754H141.377Z" fill="#2C2D32"/>
<path d="M154.079 27.3037C151.843 27.3037 149.999 26.7564 148.548 25.662C147.404 24.7997 146.645 23.7159 146.269 22.4106C146.104 21.835 146.576 21.308 147.175 21.308H149.076C149.54 21.308 149.93 21.6354 150.132 22.0531C150.375 22.556 150.739 23.0095 151.224 23.4136C151.938 23.9846 152.878 24.2701 154.044 24.2701C155.186 24.2701 156.018 24.0322 156.542 23.5564C157.065 23.0805 157.327 22.5333 157.327 21.9147C157.327 21.0106 156.958 20.4039 156.221 20.0946C155.507 19.7615 154.508 19.4641 153.223 19.2024C152.223 18.9882 151.224 18.7027 150.225 18.3458C149.249 17.989 148.429 17.4893 147.762 16.8469C147.12 16.1807 146.799 15.2885 146.799 14.1703C146.799 12.6238 147.394 11.339 148.583 10.3159C149.773 9.26908 151.438 8.74565 153.58 8.74565C155.554 8.74565 157.149 9.22149 158.362 10.1732C159.322 10.9117 159.974 11.8866 160.318 13.0979C160.482 13.6759 160.009 14.206 159.408 14.206H157.755C157.262 14.206 156.865 13.8338 156.65 13.3901C156.465 13.0054 156.191 12.6826 155.828 12.4216C155.257 11.9933 154.484 11.7792 153.508 11.7792C152.557 11.7792 151.819 11.9814 151.296 12.3859C150.772 12.7665 150.51 13.2662 150.51 13.8848C150.51 14.5034 150.867 14.9911 151.581 15.348C152.319 15.7049 153.282 16.0261 154.472 16.3116C155.661 16.5733 156.756 16.8826 157.755 17.2395C158.778 17.5726 159.599 18.0722 160.218 18.7384C160.836 19.4046 161.146 20.3801 161.146 21.6649C161.169 23.2828 160.539 24.627 159.254 25.6977C157.993 26.7683 156.268 27.3037 154.079 27.3037Z" fill="#2C2D32"/>
<path d="M169.895 26.8754C168.158 26.8754 166.778 26.459 165.755 25.6263C164.732 24.7698 164.221 23.259 164.221 21.0939V13.3502C164.221 12.7979 163.773 12.3502 163.221 12.3502H162.187C161.635 12.3502 161.187 11.9025 161.187 11.3502V10.1739C161.187 9.62162 161.635 9.17391 162.187 9.17391H163.319C163.831 9.17391 164.261 8.78638 164.313 8.27654L164.592 5.57453C164.645 5.06469 165.074 4.67716 165.587 4.67716H167.004C167.556 4.67716 168.004 5.12487 168.004 5.67716V8.17391C168.004 8.72619 168.451 9.17391 169.004 9.17391H172C172.552 9.17391 173 9.62162 173 10.1739V11.3502C173 11.9025 172.552 12.3502 172 12.3502H169.004C168.451 12.3502 168.004 12.7979 168.004 13.3502V21.0939C168.004 22.0693 168.206 22.7474 168.61 23.1281C169.039 23.485 169.764 23.6634 170.787 23.6634H171.822C172.374 23.6634 172.822 24.1111 172.822 24.6634V25.8754C172.822 26.4277 172.374 26.8754 171.822 26.8754H169.895Z" fill="#2C2D32"/>
<path d="M1 4.35769C1 3.02699 2.02724 1.94824 3.29441 1.94824H18.6677C22.0167 1.94824 25.1985 3.48502 27.3779 6.15524L48.2305 31.703C49.5062 33.2659 48.4487 35.6805 46.4885 35.6805L26.2385 35.6805C24.9713 35.6805 23.9441 34.6017 23.9441 33.271L23.9441 12.918C23.9441 11.7698 22.5596 11.2725 21.89 12.1803L4.44162 34.4757C3.10237 36.2913 1 35.7511 1 33.4545V4.35769Z" stroke="#2C2D32" stroke-width="2"/>
</svg>
