<svg width="173" height="46" viewBox="0 0 173 46" fill="none" xmlns="http://www.w3.org/2000/svg">
<path d="M67.5484 35.3453C66.9962 35.3453 66.5484 34.8976 66.5484 34.3453V10.0066C66.5484 9.45431 66.1007 9.00659 65.5484 9.00659H58.5483C57.996 9.00659 57.5483 8.55888 57.5483 8.00659V5.46239C57.5483 4.91011 57.996 4.4624 58.5483 4.4624H80.2399C80.7922 4.4624 81.2399 4.91011 81.2399 5.4624V8.00659C81.2399 8.55888 80.7922 9.00659 80.2399 9.00659H73.1956C72.6433 9.00659 72.1956 9.45431 72.1956 10.0066V34.3453C72.1956 34.8976 71.7479 35.3453 71.1956 35.3453H67.5484Z" fill="#2C2D32"/>
<path d="M81.9307 35.3451C81.3784 35.3451 80.9307 34.8974 80.9307 34.3451V14.4624C80.9307 13.9101 81.3784 13.4624 81.9307 13.4624H85.0809C85.5837 13.4624 86.0084 13.8358 86.0727 14.3344L86.2968 16.0708C86.3583 16.5481 87.0281 16.6915 87.3269 16.3142C87.9907 15.4761 88.7852 14.7755 89.7103 14.2124C90.8383 13.5164 92.1231 13.1043 93.5645 12.9763C94.1146 12.9274 94.5633 13.3807 94.5633 13.933V17.889C94.5633 18.4412 94.1156 18.889 93.5633 18.889H92.975C91.7397 18.889 90.6367 19.0801 89.6661 19.4625C88.6955 19.8449 87.9308 20.5066 87.372 21.4478C86.8426 22.389 86.5779 23.6979 86.5779 25.3744V34.3451C86.5779 34.8974 86.1301 35.3451 85.5779 35.3451H81.9307Z" fill="#2C2D32"/>
<path d="M99.2609 10.0655C98.2315 10.0655 97.3785 9.75665 96.702 9.139C96.055 8.52134 95.7314 7.74191 95.7314 6.80072C95.7314 5.85953 96.055 5.09481 96.702 4.50656C97.3785 3.88891 98.2315 3.58008 99.2609 3.58008C100.29 3.58008 101.129 3.88891 101.776 4.50656C102.452 5.09481 102.79 5.85953 102.79 6.80072C102.79 7.74191 102.452 8.52134 101.776 9.139C101.129 9.75665 100.29 10.0655 99.2609 10.0655ZM97.4373 35.3453C96.885 35.3453 96.4373 34.8976 96.4373 34.3453V14.4626C96.4373 13.9103 96.885 13.4626 97.4373 13.4626H101.085C101.637 13.4626 102.085 13.9103 102.085 14.4626V34.3453C102.085 34.8976 101.637 35.3453 101.085 35.3453H97.4373Z" fill="#2C2D32"/>
<path d="M106.773 45.0513C106.221 45.0513 105.773 44.6036 105.773 44.0513V14.4625C105.773 13.9102 106.221 13.4625 106.773 13.4625H109.98C110.458 13.4625 110.869 13.8004 110.961 14.269L111.199 15.4716C111.283 15.8997 111.852 16.0323 112.151 15.7146C112.73 15.0998 113.413 14.5403 114.2 14.036C115.376 13.3007 116.891 12.9331 118.744 12.9331C120.803 12.9331 122.641 13.4331 124.259 14.4331C125.876 15.4331 127.156 16.8008 128.097 18.5361C129.038 20.2714 129.509 22.2421 129.509 24.448C129.509 26.6539 129.038 28.6245 128.097 30.3598C127.156 32.0658 125.876 33.4187 124.259 34.4187C122.641 35.3893 120.803 35.8746 118.744 35.8746C117.097 35.8746 115.655 35.5658 114.42 34.9482C113.684 34.58 113.031 34.123 112.462 33.5771C112.107 33.2368 111.42 33.4698 111.42 33.9614V44.0513C111.42 44.6036 110.972 45.0513 110.42 45.0513H106.773ZM117.553 30.9334C119.347 30.9334 120.832 30.3304 122.009 29.1245C123.185 27.9186 123.773 26.3598 123.773 24.448C123.773 22.5362 123.185 20.9626 122.009 19.7273C120.832 18.492 119.347 17.8743 117.553 17.8743C115.729 17.8743 114.229 18.492 113.052 19.7273C111.905 20.9332 111.332 22.4921 111.332 24.4039C111.332 26.3157 111.905 27.8892 113.052 29.1245C114.229 30.3304 115.729 30.9334 117.553 30.9334Z" fill="#2C2D32"/>
<path fill-rule="evenodd" clip-rule="evenodd" d="M166.941 34.2028C166.941 34.7551 166.493 35.2028 165.941 35.2028H134.683C134.131 35.2028 133.683 34.7551 133.683 34.2028V31.4443C133.683 30.8921 134.131 30.4443 134.683 30.4443H165.941C166.493 30.4443 166.941 30.892 166.941 31.4443V34.2028Z" fill="#4C84FF"/>
<path d="M136.463 5.81919C135.749 5.81919 135.154 5.60506 134.678 5.1768C134.226 4.72474 134 4.16562 134 3.49944C134 2.83325 134.226 2.28603 134.678 1.85777C135.154 1.40571 135.749 1.17969 136.463 1.17969C137.177 1.17969 137.76 1.40571 138.212 1.85777C138.687 2.28603 138.925 2.83325 138.925 3.49944C138.925 4.16562 138.687 4.72474 138.212 5.1768C137.76 5.60506 137.177 5.81919 136.463 5.81919ZM135.571 26.8754C135.019 26.8754 134.571 26.4277 134.571 25.8754V10.1739C134.571 9.62162 135.019 9.17391 135.571 9.17391H137.354C137.907 9.17391 138.354 9.62162 138.354 10.1739V25.8754C138.354 26.4277 137.907 26.8754 137.354 26.8754H135.571Z" fill="#2C2D32"/>
<path d="M148.273 27.3037C146.037 27.3037 144.193 26.7564 142.742 25.662C141.598 24.7997 140.839 23.7159 140.463 22.4106C140.298 21.835 140.77 21.308 141.369 21.308H143.27C143.734 21.308 144.124 21.6354 144.326 22.0531C144.569 22.556 144.933 23.0095 145.418 23.4136C146.132 23.9846 147.072 24.2701 148.238 24.2701C149.38 24.2701 150.212 24.0322 150.736 23.5564C151.259 23.0805 151.521 22.5333 151.521 21.9147C151.521 21.0106 151.152 20.4039 150.415 20.0946C149.701 19.7615 148.702 19.4641 147.417 19.2024C146.417 18.9882 145.418 18.7027 144.419 18.3458C143.443 17.989 142.623 17.4893 141.956 16.8469C141.314 16.1807 140.993 15.2885 140.993 14.1703C140.993 12.6238 141.588 11.339 142.777 10.3159C143.967 9.26903 145.632 8.74561 147.774 8.74561C149.748 8.74561 151.343 9.22144 152.556 10.1732C153.516 10.9117 154.168 11.8866 154.512 13.0979C154.676 13.6759 154.203 14.206 153.602 14.206H151.949C151.456 14.206 151.059 13.8338 150.844 13.3901C150.659 13.0054 150.385 12.6826 150.022 12.4216C149.451 11.9933 148.678 11.7792 147.702 11.7792C146.751 11.7792 146.013 11.9814 145.49 12.3859C144.966 12.7665 144.704 13.2662 144.704 13.8848C144.704 14.5034 145.061 14.9911 145.775 15.348C146.513 15.7049 147.476 16.0261 148.666 16.3116C149.855 16.5733 150.95 16.8826 151.949 17.2395C152.972 17.5726 153.793 18.0722 154.412 18.7384C155.03 19.4046 155.34 20.3801 155.34 21.6649C155.363 23.2828 154.733 24.627 153.448 25.6977C152.187 26.7683 150.462 27.3037 148.273 27.3037Z" fill="#2C2D32"/>
<path d="M164.089 26.8755C162.352 26.8755 160.972 26.4591 159.949 25.6264C158.926 24.7699 158.415 23.2591 158.415 21.094V13.3503C158.415 12.798 157.967 12.3503 157.415 12.3503H156.381C155.829 12.3503 155.381 11.9026 155.381 11.3503V10.174C155.381 9.62171 155.829 9.174 156.381 9.174H157.513C158.025 9.174 158.455 8.78647 158.507 8.27663L158.786 5.57462C158.839 5.06478 159.268 4.67725 159.781 4.67725H161.198C161.75 4.67725 162.198 5.12496 162.198 5.67725V8.174C162.198 8.72628 162.645 9.174 163.198 9.174H166.194C166.746 9.174 167.194 9.62171 167.194 10.174V11.3503C167.194 11.9026 166.746 12.3503 166.194 12.3503H163.198C162.645 12.3503 162.198 12.798 162.198 13.3503V21.094C162.198 22.0694 162.4 22.7475 162.804 23.1282C163.233 23.4851 163.958 23.6635 164.981 23.6635H166.016C166.568 23.6635 167.016 24.1112 167.016 24.6635V25.8755C167.016 26.4278 166.568 26.8755 166.016 26.8755H164.089Z" fill="#2C2D32"/>
<path d="M1 4.35769C1 3.02699 2.02724 1.94824 3.29441 1.94824H18.6677C22.0167 1.94824 25.1985 3.48502 27.3779 6.15524L48.2305 31.703C49.5062 33.2659 48.4487 35.6805 46.4885 35.6805H26.2385C24.9713 35.6805 23.9441 34.6017 23.9441 33.271V12.918C23.9441 11.7698 22.5596 11.2725 21.89 12.1803L4.44162 34.4757C3.10237 36.2913 1 35.7511 1 33.4545V4.35769Z" stroke="#2C2D32" stroke-width="2"/>
</svg>
