<svg width="143" height="54" viewBox="0 0 143 54" fill="none" xmlns="http://www.w3.org/2000/svg">
<path d="M12.0781 42.0531C11.5258 42.0531 11.0781 41.6053 11.0781 41.0531V10.6333C11.0781 10.081 10.6304 9.63331 10.0781 9.63331H1C0.447717 9.63331 0 9.18559 0 8.63331V5.03995C0 4.48766 0.447715 4.03995 1 4.03995H28.1615C28.7138 4.03995 29.1615 4.48766 29.1615 5.03995V8.63331C29.1615 9.18559 28.7138 9.63331 28.1615 9.63331H19.0291C18.4768 9.63331 18.0291 10.081 18.0291 10.6333V41.0531C18.0291 41.6053 17.5814 42.0531 17.0291 42.0531H12.0781Z" fill="#2C2D32"/>
<path d="M29.7809 42.0531C29.2286 42.0531 28.7809 41.6053 28.7809 41.0531V16.1181C28.7809 15.5658 29.2286 15.1181 29.7809 15.1181H34.0924C34.5952 15.1181 35.0198 15.4914 35.0842 15.9901L35.4304 18.6738C35.492 19.151 36.155 19.2906 36.4421 18.9043C37.3002 17.7496 38.3487 16.7953 39.5875 16.0412C41.0358 15.1476 42.6938 14.6343 44.5617 14.5013C45.1126 14.4621 45.561 14.9141 45.561 15.4664V20.7975C45.561 21.3498 45.1133 21.7975 44.561 21.7975H43.606C42.0855 21.7975 40.7279 22.0328 39.5332 22.5035C38.3385 22.9741 37.3972 23.7887 36.7094 24.9472C36.0577 26.1057 35.7319 27.7167 35.7319 29.7803V41.0531C35.7319 41.6053 35.2842 42.0531 34.7319 42.0531H29.7809Z" fill="#2C2D32"/>
<path d="M51.3436 10.9366C50.0765 10.9366 49.0266 10.5565 48.1939 9.79622C47.3975 9.03596 46.9992 8.07658 46.9992 6.91808C46.9992 5.75959 47.3975 4.81831 48.1939 4.09425C49.0266 3.33399 50.0765 2.95386 51.3436 2.95386C52.6107 2.95386 53.6425 3.33399 54.4389 4.09425C55.2716 4.81831 55.6879 5.75959 55.6879 6.91808C55.6879 8.07658 55.2716 9.03596 54.4389 9.79622C53.6425 10.5565 52.6107 10.9366 51.3436 10.9366ZM48.8681 42.0531C48.3158 42.0531 47.8681 41.6053 47.8681 41.0531V16.1181C47.8681 15.5658 48.3158 15.1181 48.8681 15.1181H53.8191C54.3713 15.1181 54.8191 15.5658 54.8191 16.1181V41.0531C54.8191 41.6053 54.3713 42.0531 53.8191 42.0531H48.8681Z" fill="#2C2D32"/>
<path d="M60.359 54C59.8067 54 59.359 53.5523 59.359 53V16.1181C59.359 15.5658 59.8067 15.1181 60.359 15.1181H64.7276C65.2053 15.1181 65.6163 15.4559 65.7087 15.9246L66.0885 17.8504C66.1729 18.2784 66.7388 18.4091 67.0306 18.0847C67.7805 17.2509 68.6807 16.4974 69.7311 15.824C71.1793 14.9189 73.0437 14.4664 75.3245 14.4664C77.8587 14.4664 80.1214 15.0819 82.1126 16.3128C84.1037 17.5437 85.6786 19.2271 86.8371 21.3631C87.9955 23.499 88.5748 25.9246 88.5748 28.6399C88.5748 31.3551 87.9955 33.7807 86.8371 35.9167C85.6786 38.0164 84.1037 39.6818 82.1126 40.9127C80.1214 42.1074 77.8587 42.7047 75.3245 42.7047C73.2971 42.7047 71.5232 42.3246 70.0027 41.5643C68.9802 41.0531 68.0887 40.4027 67.3281 39.6132C66.9871 39.2591 66.31 39.485 66.31 39.9766V53C66.31 53.5523 65.8623 54 65.31 54H60.359ZM73.8583 36.6226C76.0667 36.6226 77.8949 35.8805 79.343 34.3961C80.7912 32.9118 81.5152 30.9931 81.5152 28.6399C81.5152 26.2867 80.7912 24.3498 79.343 22.8293C77.8949 21.3088 76.0667 20.5485 73.8583 20.5485C71.6137 20.5485 69.7673 21.3088 68.3192 22.8293C66.9073 24.3136 66.2014 26.2324 66.2014 28.5856C66.2014 30.9388 66.9073 32.8756 68.3192 34.3961C69.7673 35.8805 71.6137 36.6226 73.8583 36.6226Z" fill="#2C2D32"/>
<path fill-rule="evenodd" clip-rule="evenodd" d="M142.035 40.8783C142.035 41.4306 141.587 41.8783 141.035 41.8783L94.7136 41.8783C94.1613 41.8783 93.7136 41.4306 93.7136 40.8783L93.7136 37.0212C93.7136 36.469 94.1613 36.0212 94.7136 36.0212L141.035 36.0212C141.587 36.0212 142.035 36.469 142.035 37.0212L142.035 40.8783Z" fill="#4C84FF"/>
<path d="M94.7283 31.6283C94.176 31.6283 93.7283 31.1806 93.7283 30.6283V1C93.7283 0.447715 94.176 0 94.7283 0H97.3847C97.9369 0 98.3847 0.447715 98.3847 1V30.6283C98.3847 31.1806 97.9369 31.6283 97.3847 31.6283H94.7283Z" fill="#2C2D32"/>
<path d="M104.281 5.71067C103.403 5.71067 102.671 5.4471 102.085 4.91996C101.529 4.36354 101.25 3.67533 101.25 2.85533C101.25 2.03534 101.529 1.36177 102.085 0.834636C102.671 0.278212 103.403 0 104.281 0C105.16 0 105.877 0.278212 106.434 0.834636C107.02 1.36177 107.312 2.03534 107.312 2.85533C107.312 3.67533 107.02 4.36354 106.434 4.91996C105.877 5.4471 105.16 5.71067 104.281 5.71067ZM102.953 31.6283C102.401 31.6283 101.953 31.1806 101.953 30.6283V10.8399C101.953 10.2876 102.401 9.83992 102.953 9.83992H105.61C106.162 9.83992 106.61 10.2876 106.61 10.8399V30.6283C106.61 31.1806 106.162 31.6283 105.61 31.6283H102.953Z" fill="#2C2D32"/>
<path d="M118.818 32.1555C116.066 32.1555 113.796 31.4819 112.01 30.1348C110.53 29.0187 109.572 27.6011 109.137 25.8819C108.991 25.3013 109.461 24.7755 110.06 24.7755H112.843C113.307 24.7755 113.699 25.1007 113.883 25.5264C114.181 26.2122 114.654 26.8258 115.304 27.3673C116.183 28.0701 117.34 28.4216 118.775 28.4216C120.18 28.4216 121.205 28.1287 121.85 27.543C122.494 26.9573 122.816 26.2837 122.816 25.5223C122.816 24.4095 122.362 23.6627 121.454 23.282C120.576 22.872 119.346 22.5059 117.764 22.1838C116.534 21.9202 115.304 21.5688 114.074 21.1295C112.874 20.6902 111.863 20.0752 111.043 19.2845C110.252 18.4645 109.857 17.3663 109.857 15.9899C109.857 14.0863 110.589 12.5049 112.054 11.2456C113.518 9.95707 115.568 9.31279 118.204 9.31279C120.634 9.31279 122.596 9.89849 124.09 11.0699C125.338 12.0296 126.163 13.3137 126.565 14.9221C126.711 15.505 126.239 16.0338 125.639 16.0338H123.145C122.652 16.0338 122.25 15.666 122.064 15.2101C121.837 14.6562 121.473 14.1987 120.971 13.8374C120.268 13.3103 119.316 13.0467 118.116 13.0467C116.944 13.0467 116.036 13.2956 115.392 13.7935C114.748 14.262 114.426 14.877 114.426 15.6385C114.426 16.3999 114.865 17.0002 115.744 17.4395C116.651 17.8788 117.837 18.2741 119.302 18.6256C120.766 18.9477 122.113 19.3284 123.343 19.7677C124.602 20.1777 125.613 20.7927 126.374 21.6127C127.136 22.4327 127.516 23.6334 127.516 25.2148C127.546 27.2062 126.77 28.8608 125.188 30.1787C123.636 31.4965 121.513 32.1555 118.818 32.1555Z" fill="#2C2D32"/>
<path d="M138.286 31.6283C136.148 31.6283 134.45 31.1158 133.19 30.0908C131.931 29.0366 131.301 27.1769 131.301 24.512V14.7495C131.301 14.1973 130.854 13.7495 130.301 13.7495H128.567C128.015 13.7495 127.567 13.3018 127.567 12.7495V10.8399C127.567 10.2876 128.015 9.83992 128.567 9.83992H130.399C130.912 9.83992 131.341 9.4524 131.394 8.94255L131.78 5.20233C131.832 4.69249 132.262 4.30497 132.775 4.30497H134.958C135.51 4.30497 135.958 4.75268 135.958 5.30497V8.83992C135.958 9.39221 136.405 9.83992 136.958 9.83992H141.108C141.66 9.83992 142.108 10.2876 142.108 10.8399V12.7495C142.108 13.3018 141.66 13.7495 141.108 13.7495H136.958C136.405 13.7495 135.958 14.1973 135.958 14.7495V24.512C135.958 25.7127 136.207 26.5473 136.704 27.0159C137.232 27.4551 138.125 27.6748 139.384 27.6748H140.888C141.44 27.6748 141.888 28.1225 141.888 28.6748V30.6283C141.888 31.1806 141.44 31.6283 140.888 31.6283H138.286Z" fill="#2C2D32"/>
</svg>
