<svg
            width="17"
            height="17"
            viewBox="0 0 17 17"
            fill="none"
            xmlns="http://www.w3.org/2000/svg"
            className="svg-stroke"
        >
            <path d="M14.028 4.52928L14.1822 4.57748L14.3354 4.52641L15.082 4.27752L15.5302 4.48204L16.2629 6.25061L16.091 6.7123L15.3875 7.06336L15.242 7.13596L15.1671 7.28023L15.0543 7.49725L14.9856 7.62953L15.0005 7.77786C15.0455 8.22432 15.0454 8.67509 14.999 9.12137L14.9833 9.27181L15.0537 9.4057L15.1673 9.62187L15.2422 9.76437L15.3861 9.83641L16.0908 10.1891L16.2629 10.6512L15.5301 12.4206L15.082 12.6251L14.3344 12.3761L14.1812 12.3251L14.0272 12.3733L13.7941 12.4462L13.6502 12.4912L13.5552 12.6082C13.2723 12.9565 12.9541 13.2755 12.607 13.558L12.4903 13.653L12.4454 13.7965L12.3725 14.0296L12.3244 14.1836L12.3753 14.3367L12.6235 15.0827L12.4189 15.5309L10.6504 16.2636L10.1892 16.0917L9.83734 15.3886L9.7653 15.2446L9.6228 15.1698L9.40663 15.0562L9.27308 14.986L9.12299 15.0014C8.67807 15.0471 8.2276 15.0471 7.78035 15.0006L7.63039 14.985L7.49682 15.0549L7.2798 15.1685L7.1367 15.2434L7.06446 15.3879L6.71248 16.0919L6.25045 16.2644L4.48189 15.5317L4.2768 15.0833L4.52569 14.336L4.57669 14.1829L4.52851 14.0288L4.45561 13.7957L4.41064 13.6519L4.29373 13.5569C3.94445 13.273 3.62548 12.9548 3.34389 12.6087L3.24892 12.492L3.10529 12.4471L2.87217 12.3741L2.71817 12.326L2.56507 12.3769L1.81915 12.6251L1.37087 12.4205L0.638126 10.652L0.810202 10.19L1.51322 9.83811L1.65833 9.76548L1.73314 9.62149L1.84588 9.40448L1.91463 9.27215L1.89966 9.12378C1.85472 8.67825 1.85476 8.22752 1.9012 7.78121L1.91681 7.6312L1.84687 7.49758L1.73327 7.28057L1.65842 7.13756L1.51407 7.06531L0.809354 6.71262L0.637264 6.25057L1.37006 4.48117L1.81816 4.27668L2.56482 4.52556L2.71776 4.57654L2.87167 4.52858L3.10564 4.45568L3.2501 4.41067L3.34536 4.29312C3.62782 3.94456 3.94668 3.62568 4.29311 3.34381L4.40936 3.24923L4.45442 3.10629L4.52817 2.87232L4.57693 2.71762L4.5256 2.56376L4.27679 1.81801L4.48126 1.36998L6.25008 0.637419L6.71158 0.81042L7.0637 1.51399L7.13632 1.65909L7.28032 1.7339L7.49733 1.84665L7.63013 1.91564L7.77899 1.90033C8.22239 1.85474 8.67283 1.85545 9.12069 1.90198L9.27065 1.91755L9.40422 1.84764L9.62124 1.73404L9.76425 1.65919L9.83649 1.51484L10.1894 0.809804L10.6507 0.637334L12.4189 1.36994L12.6235 1.81815L12.3745 2.56571L12.3237 2.71833L12.3714 2.87195L12.4443 3.10677L12.4891 3.25118L12.6065 3.34654C12.9557 3.63038 13.2747 3.94864 13.5563 4.29472L13.6513 4.41146L13.7949 4.45637L14.028 4.52928Z" />
            <path d="M4.46094 8.55596C4.46094 10.7742 6.26742 12.5765 8.48744 12.5765C10.7075 12.5765 12.5139 10.7742 12.5139 8.55596C12.5139 6.33777 10.7075 4.5354 8.48744 4.5354C6.26742 4.5354 4.46094 6.33777 4.46094 8.55596Z" />
        </svg>